<svg width="284" height="127" viewBox="0 0 284 127" fill="none" xmlns="http://www.w3.org/2000/svg">
<g filter="url(#filter0_d_80_195)">
<path d="M141.943 0.1109L4.44266 50.1109L141.943 116.611L279.443 66.6109L141.943 0.1109Z" fill="url(#paint0_linear_80_195)"/>
<mask id="path-2-inside-1_80_195" fill="white">
<path fill-rule="evenodd" clip-rule="evenodd" d="M73.0969 24.9304L72.8093 25.0351L4.46983 49.9171L4 50.0882L4.45037 50.3054L79.5447 86.5164L80.1618 86.8139L80.5867 86.5C83.1268 84.6236 86.3182 82.8932 90.1627 81.3638C86.2193 82.9327 82.9612 84.7145 80.3885 86.6496L80.1668 86.8164L80.4931 86.9737L90.4544 91.7771L91.142 92.1087L91.5248 91.7367C93.7565 89.5684 96.977 87.5898 101.19 85.9166C96.8411 87.6441 93.5468 89.6994 91.3076 91.9542L91.1502 92.1126L91.4413 92.253L100.423 96.5842L101.226 96.9713L101.522 96.5092C103.009 94.1904 105.869 92.074 110.113 90.3812C105.676 92.1514 102.748 94.3885 101.325 96.8362L101.242 96.9789L101.488 97.0975L112.154 102.241L113.427 102.855L113.289 102.155C113.335 102.372 113.398 102.589 113.476 102.806L113.507 102.893L113.649 102.962L133.409 112.49L133.551 112.559L133.752 112.584C134.255 112.646 134.76 112.703 135.266 112.752L133.631 112.597L134.904 113.211L141.641 116.46L142.092 116.677L142.562 116.506L174.344 104.934L174.547 104.86L174.544 104.741C174.541 104.596 174.533 104.451 174.52 104.306L174.574 104.85L175.614 104.472L187.163 100.267L187.442 100.165L187.341 100.004C187.316 99.9636 187.291 99.9236 187.266 99.8836L187.448 100.163L188.229 99.8786L197.128 96.6386L197.44 96.5249L197.285 96.3477C197.276 96.3376 197.267 96.3276 197.258 96.3175L197.443 96.5237L198.144 96.2687L279.191 66.7598L279.661 66.5888L279.21 66.3716L143.427 0.895872L142.33 1.11453C146.998 8.43456 143.057 16.18 130.66 21.4473C143.44 16.0173 147.232 7.95444 141.874 0.440314L141.562 0.00252995L140.802 0.279159L133.383 2.98065L133.138 3.06964L133.125 3.07461L132.262 3.38876L122.243 7.03649L122.122 7.08056L122.064 7.10184L120.793 7.56442L93.8656 17.3686L92.5951 17.8312L92.5367 17.8524L92.4156 17.8965L83.2375 21.2382L82.3747 21.5524L82.361 21.5573L82.1166 21.6463L73.8567 24.6537L73.1038 24.9278L73.0969 24.9304ZM83.4254 21.7017C94.8582 23.2675 107.203 22.7997 117.092 20.1312C107.236 22.7906 94.9422 23.2639 83.546 21.7181L83.4254 21.7017ZM94.3372 17.862C100.124 17.8955 105.805 17.2243 110.614 15.81C105.814 17.2214 100.145 17.8928 94.371 17.8622L94.3372 17.862ZM121.894 7.82684L121.889 7.843C121.177 10.173 118.915 12.3698 115.118 14.1379C118.924 12.3656 121.188 10.1631 121.894 7.82684ZM133.33 3.52911L133.353 3.58371C135.712 9.23982 131.663 15.0146 121.312 18.8006C131.695 15.0029 135.739 9.20407 133.33 3.52911ZM120.263 94.3854C115.458 96.1349 113.105 98.6714 113.188 101.34C113.102 98.6704 115.453 96.1366 120.263 94.3854ZM73.9109 25.0869C85.2031 27.2782 97.6417 27.8272 109.015 26.6241C97.7002 27.821 85.3317 27.2836 74.0879 25.121L73.9109 25.0869ZM5.37057 50.3515L4.9202 50.1343L5.39003 49.9632L73.2597 25.2522C91.732 28.9137 113.326 28.2156 128.519 22.684C142.778 17.4924 147.762 9.36707 143.298 1.62918C143.19 1.44152 143.076 1.25409 142.957 1.06693L143.888 1.51564L278.29 66.3255L278.741 66.5427L278.271 66.7137L198.201 95.8668L197.693 96.0516C197.608 95.9561 197.521 95.8606 197.433 95.7653C194.25 92.3197 189.529 88.9888 183.275 85.9728C157.916 73.7445 116.802 71.2549 91.4428 80.488C86.9389 82.1278 83.2395 84.0254 80.343 86.1061C80.2324 86.1856 80.1229 86.2653 80.0146 86.3453L79.5419 86.1174L5.37057 50.3515ZM141.464 0.800445C146.767 8.61539 142.089 16.9809 127.618 22.2496C113.147 27.5183 92.7246 28.2918 74.9962 25.0011C74.766 24.9584 74.5363 24.915 74.307 24.8709L74.833 24.6794L82.567 21.8635C96.0635 23.8171 110.918 22.9661 121.7 19.0404C132.482 15.1147 136.566 9.0703 133.833 3.19782L140.727 0.687842L141.253 0.496332C141.325 0.597603 141.395 0.698979 141.464 0.800445ZM132.844 3.93922C134.878 9.41087 130.829 14.9543 120.799 18.6061C110.769 22.2579 97.104 23.164 84.4572 21.5564C84.2003 21.5238 83.9439 21.4901 83.6879 21.4554L84.2541 21.2492L92.866 18.1137C100.217 18.3093 107.507 17.4014 113.237 15.3152C118.967 13.2289 122.13 10.3308 122.693 7.25366L132.146 3.81208L132.712 3.60594C132.758 3.71699 132.802 3.82809 132.844 3.93922ZM95.0768 17.3088L120.483 8.05859L121.243 7.7816C121.199 7.92774 121.148 8.07334 121.091 8.21833C120.087 10.7655 117.162 13.1237 112.336 14.8808C107.51 16.6379 101.529 17.5225 95.3694 17.5834C95.0188 17.5868 94.6676 17.5876 94.316 17.5857L95.0768 17.3088ZM187.573 99.3551C185.192 95.894 180.898 92.5128 174.7 89.5237C154.657 79.8588 122.144 77.8846 102.079 85.1901C97.3172 86.9239 93.6925 89.0217 91.2016 91.3422C91.1075 91.4298 91.015 91.5178 90.9242 91.606L90.4335 91.3694L80.9629 86.8026C83.8709 84.6154 87.6643 82.626 92.3435 80.9223C117.143 71.8929 157.434 74.3073 182.335 86.315C188.777 89.4215 193.558 92.8658 196.677 96.4215L188.309 99.4682L187.779 99.6614C187.712 99.5593 187.643 99.4572 187.573 99.3551ZM175.117 103.89C174.541 100.109 170.861 96.2126 164.102 92.9534C149.375 85.852 125.464 84.3932 110.694 89.771C105.983 91.4861 102.786 93.6839 101.094 96.1124C101.025 96.2123 100.958 96.3125 100.893 96.4131L100.367 96.1594L91.9112 92.082C94.3412 89.635 98.0306 87.4265 102.98 85.6244C122.485 78.5226 154.175 80.4216 173.76 89.8658C180.167 92.9555 184.486 96.4701 186.713 100.049L175.785 104.028L175.163 104.255C175.151 104.133 175.136 104.012 175.117 103.89ZM142.581 116.118L142.111 116.289L141.661 116.072L136.076 113.379L135.374 113.04C135.708 113.072 136.043 113.1 136.378 113.126C143.092 113.648 149.906 113.033 155.05 111.16C164.805 107.608 164.711 100.933 155.021 96.26C145.33 91.587 129.568 90.6165 119.813 94.1682C114.669 96.0412 112.263 98.7827 112.56 101.641C112.574 101.784 112.596 101.927 112.624 102.07L111.922 101.731L101.958 96.9264C103.46 94.3419 106.672 91.9977 111.595 90.2054C125.805 85.0312 148.893 86.4148 163.163 93.2955C170.218 96.6975 173.796 100.806 173.894 104.717L142.581 116.118ZM114.119 102.791L133.879 112.319C141.055 113.215 148.635 112.733 154.15 110.726C163.345 107.378 163.314 101.054 154.081 96.6021C144.848 92.1498 129.909 91.2546 120.713 94.6026C115.199 96.6104 113.003 99.6882 114.119 102.791ZM144.41 105.602C147.756 104.384 147.683 102.115 144.428 100.546C141.172 98.9758 135.822 98.6292 132.476 99.8475C129.13 101.066 129.202 103.334 132.458 104.904C135.713 106.474 141.063 106.82 144.41 105.602ZM143.488 100.888C146.286 102.237 146.295 104.153 143.509 105.168C140.722 106.182 136.195 105.911 133.397 104.562C130.599 103.213 130.59 101.296 133.377 100.282C136.163 99.2673 140.69 99.5386 143.488 100.888ZM149.473 98.7086C155.526 101.628 155.608 105.812 149.475 108.045C143.343 110.278 133.466 109.66 127.412 106.741C121.359 103.822 121.277 99.6374 127.41 97.4046C133.542 95.1718 143.419 95.7896 149.473 98.7086ZM148.575 107.611C154.148 105.581 154.129 101.749 148.533 99.0508C142.937 96.3524 133.883 95.8099 128.31 97.8389C122.738 99.868 122.756 103.7 128.352 106.399C133.948 109.097 143.002 109.64 148.575 107.611Z"/>
</mask>
<path fill-rule="evenodd" clip-rule="evenodd" d="M73.0969 24.9304L72.8093 25.0351L4.46983 49.9171L4 50.0882L4.45037 50.3054L79.5447 86.5164L80.1618 86.8139L80.5867 86.5C83.1268 84.6236 86.3182 82.8932 90.1627 81.3638C86.2193 82.9327 82.9612 84.7145 80.3885 86.6496L80.1668 86.8164L80.4931 86.9737L90.4544 91.7771L91.142 92.1087L91.5248 91.7367C93.7565 89.5684 96.977 87.5898 101.19 85.9166C96.8411 87.6441 93.5468 89.6994 91.3076 91.9542L91.1502 92.1126L91.4413 92.253L100.423 96.5842L101.226 96.9713L101.522 96.5092C103.009 94.1904 105.869 92.074 110.113 90.3812C105.676 92.1514 102.748 94.3885 101.325 96.8362L101.242 96.9789L101.488 97.0975L112.154 102.241L113.427 102.855L113.289 102.155C113.335 102.372 113.398 102.589 113.476 102.806L113.507 102.893L113.649 102.962L133.409 112.49L133.551 112.559L133.752 112.584C134.255 112.646 134.76 112.703 135.266 112.752L133.631 112.597L134.904 113.211L141.641 116.46L142.092 116.677L142.562 116.506L174.344 104.934L174.547 104.86L174.544 104.741C174.541 104.596 174.533 104.451 174.52 104.306L174.574 104.85L175.614 104.472L187.163 100.267L187.442 100.165L187.341 100.004C187.316 99.9636 187.291 99.9236 187.266 99.8836L187.448 100.163L188.229 99.8786L197.128 96.6386L197.44 96.5249L197.285 96.3477C197.276 96.3376 197.267 96.3276 197.258 96.3175L197.443 96.5237L198.144 96.2687L279.191 66.7598L279.661 66.5888L279.21 66.3716L143.427 0.895872L142.33 1.11453C146.998 8.43456 143.057 16.18 130.66 21.4473C143.44 16.0173 147.232 7.95444 141.874 0.440314L141.562 0.00252995L140.802 0.279159L133.383 2.98065L133.138 3.06964L133.125 3.07461L132.262 3.38876L122.243 7.03649L122.122 7.08056L122.064 7.10184L120.793 7.56442L93.8656 17.3686L92.5951 17.8312L92.5367 17.8524L92.4156 17.8965L83.2375 21.2382L82.3747 21.5524L82.361 21.5573L82.1166 21.6463L73.8567 24.6537L73.1038 24.9278L73.0969 24.9304ZM83.4254 21.7017C94.8582 23.2675 107.203 22.7997 117.092 20.1312C107.236 22.7906 94.9422 23.2639 83.546 21.7181L83.4254 21.7017ZM94.3372 17.862C100.124 17.8955 105.805 17.2243 110.614 15.81C105.814 17.2214 100.145 17.8928 94.371 17.8622L94.3372 17.862ZM121.894 7.82684L121.889 7.843C121.177 10.173 118.915 12.3698 115.118 14.1379C118.924 12.3656 121.188 10.1631 121.894 7.82684ZM133.33 3.52911L133.353 3.58371C135.712 9.23982 131.663 15.0146 121.312 18.8006C131.695 15.0029 135.739 9.20407 133.33 3.52911ZM120.263 94.3854C115.458 96.1349 113.105 98.6714 113.188 101.34C113.102 98.6704 115.453 96.1366 120.263 94.3854ZM73.9109 25.0869C85.2031 27.2782 97.6417 27.8272 109.015 26.6241C97.7002 27.821 85.3317 27.2836 74.0879 25.121L73.9109 25.0869ZM5.37057 50.3515L4.9202 50.1343L5.39003 49.9632L73.2597 25.2522C91.732 28.9137 113.326 28.2156 128.519 22.684C142.778 17.4924 147.762 9.36707 143.298 1.62918C143.19 1.44152 143.076 1.25409 142.957 1.06693L143.888 1.51564L278.29 66.3255L278.741 66.5427L278.271 66.7137L198.201 95.8668L197.693 96.0516C197.608 95.9561 197.521 95.8606 197.433 95.7653C194.25 92.3197 189.529 88.9888 183.275 85.9728C157.916 73.7445 116.802 71.2549 91.4428 80.488C86.9389 82.1278 83.2395 84.0254 80.343 86.1061C80.2324 86.1856 80.1229 86.2653 80.0146 86.3453L79.5419 86.1174L5.37057 50.3515ZM141.464 0.800445C146.767 8.61539 142.089 16.9809 127.618 22.2496C113.147 27.5183 92.7246 28.2918 74.9962 25.0011C74.766 24.9584 74.5363 24.915 74.307 24.8709L74.833 24.6794L82.567 21.8635C96.0635 23.8171 110.918 22.9661 121.7 19.0404C132.482 15.1147 136.566 9.0703 133.833 3.19782L140.727 0.687842L141.253 0.496332C141.325 0.597603 141.395 0.698979 141.464 0.800445ZM132.844 3.93922C134.878 9.41087 130.829 14.9543 120.799 18.6061C110.769 22.2579 97.104 23.164 84.4572 21.5564C84.2003 21.5238 83.9439 21.4901 83.6879 21.4554L84.2541 21.2492L92.866 18.1137C100.217 18.3093 107.507 17.4014 113.237 15.3152C118.967 13.2289 122.13 10.3308 122.693 7.25366L132.146 3.81208L132.712 3.60594C132.758 3.71699 132.802 3.82809 132.844 3.93922ZM95.0768 17.3088L120.483 8.05859L121.243 7.7816C121.199 7.92774 121.148 8.07334 121.091 8.21833C120.087 10.7655 117.162 13.1237 112.336 14.8808C107.51 16.6379 101.529 17.5225 95.3694 17.5834C95.0188 17.5868 94.6676 17.5876 94.316 17.5857L95.0768 17.3088ZM187.573 99.3551C185.192 95.894 180.898 92.5128 174.7 89.5237C154.657 79.8588 122.144 77.8846 102.079 85.1901C97.3172 86.9239 93.6925 89.0217 91.2016 91.3422C91.1075 91.4298 91.015 91.5178 90.9242 91.606L90.4335 91.3694L80.9629 86.8026C83.8709 84.6154 87.6643 82.626 92.3435 80.9223C117.143 71.8929 157.434 74.3073 182.335 86.315C188.777 89.4215 193.558 92.8658 196.677 96.4215L188.309 99.4682L187.779 99.6614C187.712 99.5593 187.643 99.4572 187.573 99.3551ZM175.117 103.89C174.541 100.109 170.861 96.2126 164.102 92.9534C149.375 85.852 125.464 84.3932 110.694 89.771C105.983 91.4861 102.786 93.6839 101.094 96.1124C101.025 96.2123 100.958 96.3125 100.893 96.4131L100.367 96.1594L91.9112 92.082C94.3412 89.635 98.0306 87.4265 102.98 85.6244C122.485 78.5226 154.175 80.4216 173.76 89.8658C180.167 92.9555 184.486 96.4701 186.713 100.049L175.785 104.028L175.163 104.255C175.151 104.133 175.136 104.012 175.117 103.89ZM142.581 116.118L142.111 116.289L141.661 116.072L136.076 113.379L135.374 113.04C135.708 113.072 136.043 113.1 136.378 113.126C143.092 113.648 149.906 113.033 155.05 111.16C164.805 107.608 164.711 100.933 155.021 96.26C145.33 91.587 129.568 90.6165 119.813 94.1682C114.669 96.0412 112.263 98.7827 112.56 101.641C112.574 101.784 112.596 101.927 112.624 102.07L111.922 101.731L101.958 96.9264C103.46 94.3419 106.672 91.9977 111.595 90.2054C125.805 85.0312 148.893 86.4148 163.163 93.2955C170.218 96.6975 173.796 100.806 173.894 104.717L142.581 116.118ZM114.119 102.791L133.879 112.319C141.055 113.215 148.635 112.733 154.15 110.726C163.345 107.378 163.314 101.054 154.081 96.6021C144.848 92.1498 129.909 91.2546 120.713 94.6026C115.199 96.6104 113.003 99.6882 114.119 102.791ZM144.41 105.602C147.756 104.384 147.683 102.115 144.428 100.546C141.172 98.9758 135.822 98.6292 132.476 99.8475C129.13 101.066 129.202 103.334 132.458 104.904C135.713 106.474 141.063 106.82 144.41 105.602ZM143.488 100.888C146.286 102.237 146.295 104.153 143.509 105.168C140.722 106.182 136.195 105.911 133.397 104.562C130.599 103.213 130.59 101.296 133.377 100.282C136.163 99.2673 140.69 99.5386 143.488 100.888ZM149.473 98.7086C155.526 101.628 155.608 105.812 149.475 108.045C143.343 110.278 133.466 109.66 127.412 106.741C121.359 103.822 121.277 99.6374 127.41 97.4046C133.542 95.1718 143.419 95.7896 149.473 98.7086ZM148.575 107.611C154.148 105.581 154.129 101.749 148.533 99.0508C142.937 96.3524 133.883 95.8099 128.31 97.8389C122.738 99.868 122.756 103.7 128.352 106.399C133.948 109.097 143.002 109.64 148.575 107.611Z" fill="#CDCDCD"/>
<path d="M4 50.0882L3.54963 49.871L3.0798 50.0421L3.53017 50.2593L4 50.0882ZM4.45037 50.3054L3.98055 50.4764L4.45037 50.3054ZM79.5447 86.5164L80.0146 86.3453L79.5447 86.5164ZM80.1618 86.8139L79.692 86.985L80.309 87.2826L80.734 86.9686L80.1618 86.8139ZM80.5867 86.5L81.1589 86.6547L81.1589 86.6547L80.5867 86.5ZM90.1627 81.3638L90.6315 81.5739L89.6939 81.1536L90.1627 81.3638ZM80.3885 86.6496L79.8142 86.4965L79.8142 86.4965L80.3885 86.6496ZM80.1668 86.8164L79.5924 86.6633L79.3707 86.8301L79.697 86.9874L80.1668 86.8164ZM91.142 92.1087L90.6722 92.2797L91.3598 92.6113L91.7426 92.2394L91.142 92.1087ZM91.5248 91.7367L92.1254 91.8675L92.1254 91.8675L91.5248 91.7367ZM101.19 85.9166L101.659 86.1269L100.722 85.7063L101.19 85.9166ZM91.3076 91.9542L91.9112 92.082L91.9112 92.082L91.3076 91.9542ZM91.1502 92.1126L90.5466 91.9849L90.3893 92.1433L90.6804 92.2837L91.1502 92.1126ZM91.4413 92.253L91.9112 92.082L91.4413 92.253ZM100.423 96.5842L99.9534 96.7552L100.423 96.5842ZM101.226 96.9713L100.756 97.1424L101.559 97.5296L101.855 97.0675L101.226 96.9713ZM101.522 96.5092L100.893 96.4131L100.893 96.4131L101.522 96.5092ZM110.113 90.3812L110.582 90.5911L109.644 90.1712L110.113 90.3812ZM101.325 96.8362L100.692 96.7459L100.692 96.7459L101.325 96.8362ZM101.242 96.9789L100.609 96.8886L100.526 97.0313L100.772 97.1499L101.242 96.9789ZM101.488 97.0975L101.958 96.9264L101.488 97.0975ZM112.154 102.241L112.624 102.07L112.154 102.241ZM113.427 102.855L112.957 103.026L114.23 103.639L114.075 102.858L113.427 102.855ZM113.289 102.155L113.937 102.157L112.64 102.151L113.289 102.155ZM113.476 102.806L114.119 102.791L114.119 102.791L113.476 102.806ZM113.507 102.893L112.864 102.909L112.895 102.996L113.037 103.064L113.507 102.893ZM133.551 112.559L133.081 112.73L133.223 112.798L133.424 112.823L133.551 112.559ZM133.752 112.584L133.626 112.848L133.626 112.848L133.752 112.584ZM135.266 112.752L135.184 113.022L135.352 112.483L135.266 112.752ZM133.631 112.597L133.713 112.328L131.889 112.155L133.161 112.768L133.631 112.597ZM142.092 116.677L141.622 116.848L142.072 117.065L142.542 116.894L142.092 116.677ZM142.562 116.506L142.111 116.289L142.562 116.506ZM174.344 104.934L174.794 105.151L174.344 104.934ZM174.547 104.86L174.998 105.077L175.201 105.003L175.198 104.884L174.547 104.86ZM174.544 104.741L175.195 104.765L175.195 104.765L174.544 104.741ZM174.52 104.306L175.17 104.321L173.869 104.29L174.52 104.306ZM174.574 104.85L173.924 104.835L173.985 105.446L175.024 105.068L174.574 104.85ZM187.163 100.267L186.713 100.049L187.163 100.267ZM187.442 100.165L187.892 100.382L188.171 100.281L188.07 100.119L187.442 100.165ZM187.341 100.004L186.713 100.049L186.713 100.049L187.341 100.004ZM187.266 99.8836L187.892 99.8341L186.638 99.931L187.266 99.8836ZM187.448 100.163L186.822 100.212L187.118 100.664L187.899 100.38L187.448 100.163ZM188.229 99.8786L188.679 100.096L188.229 99.8786ZM197.128 96.6386L196.677 96.4215L197.128 96.6386ZM197.44 96.5249L197.891 96.742L198.203 96.6283L198.048 96.4511L197.44 96.5249ZM197.285 96.3477L196.677 96.4214L196.677 96.4215L197.285 96.3477ZM197.258 96.3175L197.864 96.2416L196.651 96.3916L197.258 96.3175ZM197.443 96.5237L196.838 96.5996L197.193 96.9959L197.894 96.7409L197.443 96.5237ZM198.144 96.2687L198.594 96.4859L198.144 96.2687ZM279.191 66.7598L278.741 66.5427L279.191 66.7598ZM279.661 66.5888L280.111 66.8059L280.581 66.6349L280.131 66.4177L279.661 66.5888ZM143.427 0.895872L143.897 0.72481L143.546 0.555611L143.105 0.643459L143.427 0.895872ZM142.33 1.11453L142.008 0.862121L141.567 0.94997L141.703 1.16214L142.33 1.11453ZM141.874 0.440314L141.253 0.496329L141.253 0.496332L141.874 0.440314ZM141.562 0.00252995L142.184 -0.0534852L141.871 -0.491272L141.112 -0.214643L141.562 0.00252995ZM140.802 0.279159L140.352 0.0619855L140.802 0.279159ZM133.383 2.98065L132.932 2.76348L133.383 2.98065ZM133.138 3.06964L133.589 3.28681L133.138 3.06964ZM133.125 3.07461L132.674 2.85743L133.125 3.07461ZM132.262 3.38876L132.712 3.60594L132.262 3.38876ZM122.243 7.03649L122.693 7.25366L122.243 7.03649ZM122.122 7.08056L121.672 6.86339L122.122 7.08056ZM122.064 7.10184L122.514 7.31901L122.064 7.10184ZM120.793 7.56442L121.243 7.7816L120.793 7.56442ZM93.8656 17.3686L93.4153 17.1514L93.8656 17.3686ZM92.5951 17.8312L93.0455 18.0483L92.5951 17.8312ZM92.5367 17.8524L92.0863 17.6353L92.5367 17.8524ZM92.4156 17.8965L91.9653 17.6793L92.4156 17.8965ZM83.2375 21.2382L82.7872 21.021L83.2375 21.2382ZM82.3747 21.5524L82.8251 21.7695L82.3747 21.5524ZM82.361 21.5573L81.9107 21.3402L82.361 21.5573ZM117.092 20.1312L117.477 20.3687L116.706 19.8937L117.092 20.1312ZM83.4254 21.7017L83.5673 21.439L83.2816 21.9641L83.4254 21.7017ZM83.546 21.7181L83.6879 21.4554L83.6879 21.4554L83.546 21.7181ZM110.614 15.81L111.018 16.0422L110.21 15.5777L110.614 15.81ZM94.3372 17.862L94.2822 17.5856L94.3915 18.1384L94.3372 17.862ZM94.371 17.8622L94.316 17.5857L94.316 17.5857L94.371 17.8622ZM121.889 7.843L122.535 7.9044L122.535 7.9044L121.889 7.843ZM121.894 7.82684L122.54 7.88789L121.248 7.76544L121.894 7.82684ZM115.118 14.1379L114.619 13.9411L115.618 14.3347L115.118 14.1379ZM133.353 3.58371L132.712 3.60592L132.712 3.60594L133.353 3.58371ZM133.33 3.52911L133.97 3.50603L132.689 3.55132L133.33 3.52911ZM113.188 101.34L112.538 101.317L113.839 101.363L113.188 101.34ZM109.015 26.6241L109.229 26.8928L108.801 26.3554L109.015 26.6241ZM73.9109 25.0869L74.13 24.8369L73.6896 25.3366L73.9109 25.0869ZM74.0879 25.121L74.307 24.8709L74.307 24.8709L74.0879 25.121ZM4.9202 50.1343L4.46983 49.9171L4 50.0882L4.45037 50.3054L4.9202 50.1343ZM73.2597 25.2522L73.4863 25.0036L73.1038 24.9278L72.8093 25.0351L73.2597 25.2522ZM143.298 1.62918L142.667 1.66986L142.667 1.66987L143.298 1.62918ZM142.957 1.06693L143.427 0.895872L142.33 1.11454L142.957 1.06693ZM278.741 66.5427L279.191 66.7598L279.661 66.5888L279.21 66.3716L278.741 66.5427ZM198.201 95.8668L197.75 95.6497L198.201 95.8668ZM197.693 96.0516L197.088 96.1275L197.443 96.5237L198.144 96.2687L197.693 96.0516ZM197.433 95.7653L196.83 95.844L196.83 95.844L197.433 95.7653ZM80.343 86.1061L80.9117 86.2633L80.9117 86.2633L80.343 86.1061ZM80.0146 86.3453L79.5447 86.5164L80.1618 86.8139L80.5867 86.5L80.0146 86.3453ZM79.5419 86.1174L79.0721 86.2885L79.5419 86.1174ZM141.464 0.800445L142.088 0.748269L142.088 0.748266L141.464 0.800445ZM74.9962 25.0011L74.7858 25.2528L74.7858 25.2528L74.9962 25.0011ZM74.307 24.8709L73.8567 24.6537L73.0969 24.9304L74.0879 25.121L74.307 24.8709ZM82.567 21.8635L82.7219 21.6026L82.3747 21.5524L82.1166 21.6463L82.567 21.8635ZM133.833 3.19782L133.383 2.98065L133.125 3.0746L133.195 3.22567L133.833 3.19782ZM141.253 0.496332L141.874 0.440305L141.562 0.00254289L140.802 0.279159L141.253 0.496332ZM132.844 3.93922L132.201 3.95612L132.201 3.95613L132.844 3.93922ZM84.4572 21.5564L84.3275 21.8207L84.3275 21.8207L84.4572 21.5564ZM83.6879 21.4554L83.2375 21.2382L82.361 21.5573L83.546 21.7181L83.6879 21.4554ZM92.866 18.1137L92.8436 17.8378L92.5951 17.8312L92.4156 17.8965L92.866 18.1137ZM122.693 7.25366L122.243 7.03649L122.064 7.10184L122.045 7.20587L122.693 7.25366ZM132.712 3.60594L133.353 3.58371L133.138 3.06963L132.262 3.38876L132.712 3.60594ZM95.0768 17.3088L94.6264 17.0916L95.0768 17.3088ZM120.483 8.05859L120.032 7.84141L120.483 8.05859ZM121.243 7.7816L121.889 7.843L122.122 7.08055L120.793 7.56442L121.243 7.7816ZM121.091 8.21833L121.733 8.28927L121.733 8.28927L121.091 8.21833ZM95.3694 17.5834L95.4474 17.8597L95.4474 17.8597L95.3694 17.5834ZM94.316 17.5857L93.8656 17.3686L92.5367 17.8524L94.371 17.8622L94.316 17.5857ZM187.573 99.3551L186.95 99.4083L186.95 99.4083L187.573 99.3551ZM91.2016 91.3422L91.7984 91.4764L91.7984 91.4764L91.2016 91.3422ZM90.9242 91.606L90.4544 91.7771L91.142 92.1087L91.5248 91.7367L90.9242 91.606ZM90.4335 91.3694L89.9637 91.5405L90.4335 91.3694ZM80.9629 86.8026L80.3885 86.6496L80.1668 86.8163L80.4931 86.9737L80.9629 86.8026ZM196.677 96.4215L197.128 96.6386L197.44 96.5249L197.285 96.3477L196.677 96.4215ZM188.309 99.4682L187.859 99.251L188.309 99.4682ZM187.779 99.6614L187.153 99.7109L187.448 100.163L188.229 99.8786L187.779 99.6614ZM175.117 103.89L174.468 103.881L174.468 103.881L175.117 103.89ZM101.094 96.1124L101.72 96.214L101.72 96.2139L101.094 96.1124ZM100.893 96.4131L100.423 96.5842L101.226 96.9713L101.522 96.5092L100.893 96.4131ZM91.9112 92.082L91.3076 91.9542L91.1502 92.1126L91.4413 92.253L91.9112 92.082ZM186.713 100.049L187.163 100.267L187.442 100.165L187.341 100.004L186.713 100.049ZM175.785 104.028L176.236 104.245L175.785 104.028ZM175.163 104.255L174.513 104.24L174.574 104.85L175.614 104.472L175.163 104.255ZM142.581 116.118L142.131 115.901L142.581 116.118ZM142.111 116.289L141.641 116.46L142.092 116.677L142.562 116.506L142.111 116.289ZM135.374 113.04L135.455 112.77L133.631 112.597L134.904 113.211L135.374 113.04ZM136.378 113.126L136.434 112.855L136.434 112.855L136.378 113.126ZM112.56 101.641L113.21 101.656L113.21 101.656L112.56 101.641ZM112.624 102.07L112.154 102.241L113.427 102.855L113.273 102.074L112.624 102.07ZM111.922 101.731L111.452 101.902L111.922 101.731ZM101.958 96.9264L101.325 96.8362L101.242 96.9789L101.488 97.0975L101.958 96.9264ZM173.894 104.717L174.344 104.934L174.547 104.86L174.544 104.741L173.894 104.717ZM133.879 112.319L133.409 112.49L133.551 112.559L133.752 112.584L133.879 112.319ZM114.119 102.791L113.476 102.806L113.507 102.893L113.649 102.962L114.119 102.791ZM72.6465 24.7132L72.3589 24.8179L73.2597 25.2522L73.5473 25.1475L72.6465 24.7132ZM72.3589 24.8179L4.01945 49.7L4.9202 50.1343L73.2597 25.2522L72.3589 24.8179ZM4.01945 49.7L3.54963 49.871L4.45037 50.3054L4.9202 50.1343L4.01945 49.7ZM3.53017 50.2593L3.98055 50.4764L4.9202 50.1343L4.46983 49.9171L3.53017 50.2593ZM3.98055 50.4764L79.0749 86.6875L80.0146 86.3453L4.9202 50.1343L3.98055 50.4764ZM79.0749 86.6875L79.692 86.985L80.6316 86.6429L80.0146 86.3453L79.0749 86.6875ZM80.734 86.9686L81.1589 86.6547L80.0146 86.3453L79.5896 86.6593L80.734 86.9686ZM81.1589 86.6547C83.6714 84.7986 86.8282 83.0869 90.6315 81.5739L89.6939 81.1536C85.8081 82.6994 82.5821 84.4485 80.0146 86.3453L81.1589 86.6547ZM89.6939 81.1536C85.7081 82.7394 82.4147 84.5405 79.8142 86.4965L80.9629 86.8026C83.5077 84.8885 86.7305 83.126 90.6315 81.5739L89.6939 81.1536ZM79.8142 86.4965L79.5924 86.6633L80.7411 86.9694L80.9629 86.8026L79.8142 86.4965ZM79.697 86.9874L80.0232 87.1447L80.9629 86.8026L80.6366 86.6453L79.697 86.9874ZM80.0232 87.1447L89.9845 91.9482L90.9242 91.606L80.9629 86.8026L80.0232 87.1447ZM89.9845 91.9482L90.6722 92.2797L91.6118 91.9376L90.9242 91.606L89.9845 91.9482ZM91.7426 92.2394L92.1254 91.8675L90.9242 91.606L90.5414 91.978L91.7426 92.2394ZM92.1254 91.8675C94.3266 89.7287 97.503 87.7773 101.659 86.1269L100.722 85.7063C96.4511 87.4023 93.1863 89.4081 90.9242 91.606L92.1254 91.8675ZM100.722 85.7063C96.3131 87.4574 92.9737 89.541 90.704 91.8264L91.9112 92.082C94.1199 89.8578 97.369 87.8308 101.659 86.1269L100.722 85.7063ZM90.704 91.8264L90.5466 91.9849L91.7538 92.2404L91.9112 92.082L90.704 91.8264ZM90.6804 92.2837L90.9715 92.4241L91.9112 92.082L91.62 91.9416L90.6804 92.2837ZM90.9715 92.4241L99.9534 96.7552L100.893 96.4131L91.9112 92.082L90.9715 92.4241ZM99.9534 96.7552L100.756 97.1424L101.696 96.8003L100.893 96.4131L99.9534 96.7552ZM101.855 97.0675L102.152 96.6054L100.893 96.4131L100.597 96.8752L101.855 97.0675ZM102.152 96.6054C103.611 94.329 106.418 92.2522 110.582 90.5911L109.644 90.1712C105.321 91.8958 102.406 94.0519 100.893 96.4131L102.152 96.6054ZM109.644 90.1712C105.124 91.9747 102.141 94.2538 100.692 96.7459L101.958 96.9264C103.355 94.5233 106.229 92.3281 110.582 90.5911L109.644 90.1712ZM100.692 96.7459L100.609 96.8886L101.875 97.0691L101.958 96.9264L100.692 96.7459ZM100.772 97.1499L101.018 97.2686L101.958 96.9264L101.712 96.8078L100.772 97.1499ZM101.018 97.2686L111.685 102.412L112.624 102.07L101.958 96.9264L101.018 97.2686ZM111.685 102.412L112.957 103.026L113.897 102.684L112.624 102.07L111.685 102.412ZM114.075 102.858L113.937 102.159L112.64 102.151L112.778 102.851L114.075 102.858ZM112.641 102.153C112.689 102.376 112.753 102.599 112.833 102.822L114.119 102.791C114.043 102.579 113.982 102.368 113.937 102.157L112.641 102.153ZM112.833 102.822L112.864 102.909L114.151 102.878L114.119 102.791L112.833 102.822ZM113.037 103.064L113.18 103.133L114.119 102.791L113.977 102.722L113.037 103.064ZM113.18 103.133L132.939 112.661L133.879 112.319L114.119 102.791L113.18 103.133ZM132.939 112.661L133.081 112.73L134.021 112.387L133.879 112.319L132.939 112.661ZM133.424 112.823L133.626 112.848L133.879 112.319L133.677 112.294L133.424 112.823ZM133.626 112.848C134.142 112.913 134.66 112.97 135.179 113.021L135.352 112.483C134.86 112.435 134.368 112.38 133.879 112.319L133.626 112.848ZM135.348 112.483L133.713 112.328L133.549 112.867L135.184 113.022L135.348 112.483ZM133.161 112.768L134.434 113.382L135.374 113.04L134.101 112.426L133.161 112.768ZM134.434 113.382L141.171 116.631L142.111 116.289L135.374 113.04L134.434 113.382ZM141.171 116.631L141.622 116.848L142.562 116.506L142.111 116.289L141.171 116.631ZM142.542 116.894L143.012 116.723L142.111 116.289L141.641 116.46L142.542 116.894ZM143.012 116.723L174.794 105.151L173.894 104.717L142.111 116.289L143.012 116.723ZM174.794 105.151L174.998 105.077L174.097 104.643L173.894 104.717L174.794 105.151ZM175.198 104.884L175.195 104.765L173.894 104.717L173.897 104.836L175.198 104.884ZM175.195 104.765C175.192 104.617 175.183 104.47 175.17 104.322L173.869 104.29C173.882 104.432 173.89 104.575 173.894 104.717L175.195 104.765ZM173.869 104.291L173.924 104.835L175.224 104.865L175.17 104.321L173.869 104.291ZM175.024 105.068L176.064 104.689L175.163 104.255L174.124 104.633L175.024 105.068ZM176.064 104.689L187.614 100.484L186.713 100.049L175.163 104.255L176.064 104.689ZM187.614 100.484L187.892 100.382L186.991 99.9481L186.713 100.049L187.614 100.484ZM188.07 100.119L187.969 99.9578L186.713 100.049L186.813 100.211L188.07 100.119ZM187.969 99.9578C187.944 99.9173 187.919 99.8768 187.893 99.8363L186.638 99.931C186.663 99.9705 186.688 100.01 186.713 100.049L187.969 99.9578ZM186.64 99.9331L186.822 100.212L188.074 100.113L187.892 99.8341L186.64 99.9331ZM187.899 100.38L188.679 100.096L187.779 99.6614L186.998 99.9456L187.899 100.38ZM188.679 100.096L197.578 96.8558L196.677 96.4215L187.779 99.6614L188.679 100.096ZM197.578 96.8558L197.891 96.742L196.99 96.3077L196.677 96.4215L197.578 96.8558ZM198.048 96.4511L197.892 96.2739L196.677 96.4215L196.833 96.5987L198.048 96.4511ZM197.892 96.2739C197.883 96.2637 197.874 96.2536 197.865 96.2434L196.651 96.3916C196.66 96.4015 196.669 96.4115 196.677 96.4214L197.892 96.2739ZM196.653 96.3934L196.838 96.5996L198.049 96.4478L197.864 96.2416L196.653 96.3934ZM197.894 96.7409L198.594 96.4859L197.693 96.0516L196.993 96.3066L197.894 96.7409ZM198.594 96.4859L279.641 66.977L278.741 66.5427L197.693 96.0516L198.594 96.4859ZM279.641 66.977L280.111 66.8059L279.21 66.3716L278.741 66.5427L279.641 66.977ZM280.131 66.4177L279.68 66.2005L278.741 66.5427L279.191 66.7598L280.131 66.4177ZM279.68 66.2005L143.897 0.72481L142.957 1.06693L278.741 66.5427L279.68 66.2005ZM143.105 0.643459L142.008 0.862121L142.652 1.36695L143.749 1.14829L143.105 0.643459ZM141.703 1.16214C146.314 8.39188 142.42 16.0411 130.178 21.2425L131.142 21.652C143.694 16.3189 147.683 8.47723 142.957 1.06693L141.703 1.16214ZM131.142 21.652C144.082 16.1542 147.92 7.99119 142.496 0.384297L141.253 0.496332C146.544 7.91769 142.798 15.8804 130.178 21.2425L131.142 21.652ZM142.496 0.384299L142.184 -0.0534852L140.941 0.0585452L141.253 0.496329L142.496 0.384299ZM141.112 -0.214643L140.352 0.0619855L141.253 0.496332L142.012 0.219703L141.112 -0.214643ZM140.352 0.0619855L132.932 2.76348L133.833 3.19782L141.253 0.496332L140.352 0.0619855ZM132.932 2.76348L132.688 2.85246L133.589 3.28681L133.833 3.19782L132.932 2.76348ZM132.688 2.85246L132.674 2.85743L133.575 3.29178L133.589 3.28681L132.688 2.85246ZM132.674 2.85743L131.811 3.17159L132.712 3.60594L133.575 3.29178L132.674 2.85743ZM131.811 3.17159L121.793 6.81932L122.693 7.25366L132.712 3.60594L131.811 3.17159ZM121.793 6.81932L121.672 6.86339L122.572 7.29773L122.693 7.25366L121.793 6.81932ZM121.672 6.86339L121.613 6.88467L122.514 7.31901L122.572 7.29773L121.672 6.86339ZM121.613 6.88467L120.343 7.34725L121.243 7.7816L122.514 7.31901L121.613 6.88467ZM120.343 7.34725L93.4153 17.1514L94.316 17.5857L121.243 7.7816L120.343 7.34725ZM93.4153 17.1514L92.1448 17.614L93.0455 18.0483L94.316 17.5857L93.4153 17.1514ZM92.1448 17.614L92.0863 17.6353L92.9871 18.0696L93.0455 18.0483L92.1448 17.614ZM92.0863 17.6353L91.9653 17.6793L92.866 18.1137L92.9871 18.0696L92.0863 17.6353ZM91.9653 17.6793L82.7872 21.021L83.6879 21.4554L92.866 18.1137L91.9653 17.6793ZM82.7872 21.021L81.9243 21.3352L82.8251 21.7695L83.6879 21.4554L82.7872 21.021ZM81.9243 21.3352L81.9107 21.3402L82.8114 21.7745L82.8251 21.7695L81.9243 21.3352ZM81.9107 21.3402L81.6663 21.4291L82.567 21.8635L82.8114 21.7745L81.9107 21.3402ZM81.6663 21.4291L73.4063 24.4366L74.307 24.8709L82.567 21.8635L81.6663 21.4291ZM73.4063 24.4366L72.6535 24.7107L73.5542 25.145L74.307 24.8709L73.4063 24.4366ZM72.6535 24.7107L72.6465 24.7132L73.5473 25.1475L73.5542 25.145L72.6535 24.7107ZM116.706 19.8937C106.974 22.5198 94.8237 22.9807 83.5692 21.4393L83.2816 21.9641C94.8927 23.5544 107.432 23.0795 117.477 20.3687L116.706 19.8937ZM83.404 21.9808C94.9781 23.5507 107.466 23.0703 117.477 20.3687L116.706 19.8937C107.007 22.5109 94.9064 22.9771 83.6879 21.4554L83.404 21.9808ZM83.2835 21.9644L83.4041 21.9808L83.6879 21.4554L83.5673 21.439L83.2835 21.9644ZM110.21 15.5777C105.504 16.9616 99.9456 17.6184 94.283 17.5856L94.3915 18.1384C100.302 18.1727 106.106 17.487 111.018 16.0422L110.21 15.5777ZM94.426 18.1386C100.323 18.1699 106.115 17.484 111.018 16.0422L110.21 15.5777C105.514 16.9587 99.9664 17.6157 94.316 17.5857L94.426 18.1386ZM94.3923 18.1384L94.4261 18.1386L94.316 17.5857L94.2822 17.5856L94.3923 18.1384ZM122.535 7.9044L122.54 7.88823L121.248 7.76544L121.243 7.7816L122.535 7.9044ZM115.618 14.3347C119.497 12.5284 121.807 10.2842 122.535 7.9044L121.243 7.7816C120.547 10.0617 118.333 12.2111 114.619 13.9411L115.618 14.3347ZM121.248 7.76578C120.557 10.0521 118.342 12.2071 114.619 13.9411L115.618 14.3347C119.506 12.5242 121.818 10.2741 122.54 7.88789L121.248 7.76578ZM133.993 3.5615L133.97 3.50689L132.689 3.55132L132.712 3.60592L133.993 3.5615ZM121.763 19.0174C132.277 15.1718 136.39 9.30584 133.993 3.56148L132.712 3.60594C135.035 9.1738 131.049 14.8574 120.86 18.5838L121.763 19.0174ZM132.69 3.55218C135.061 9.13862 131.08 14.8459 120.86 18.5838L121.763 19.0174C132.31 15.1599 136.417 9.26952 133.97 3.50603L132.69 3.55218ZM119.813 94.1682C114.869 95.9684 112.452 98.5773 112.538 101.317L113.839 101.363C113.758 98.7656 116.048 96.3014 120.713 94.6026L119.813 94.1682ZM113.839 101.363C113.755 98.7645 116.043 96.3032 120.713 94.6026L119.813 94.1682C114.864 95.97 112.449 98.5762 112.538 101.317L113.839 101.363ZM108.801 26.3554C97.5692 27.5436 85.2842 27.0014 74.1322 24.8373L73.6896 25.3366C85.122 27.5551 97.7142 28.1108 109.229 26.8928L108.801 26.3554ZM73.8688 25.371C85.2522 27.5605 97.7734 28.1045 109.229 26.8928L108.801 26.3554C97.627 27.5374 85.4112 27.0067 74.307 24.8709L73.8688 25.371ZM73.6918 25.337L73.8688 25.371L74.307 24.8709L74.13 24.8369L73.6918 25.337ZM5.8404 50.1804L5.39003 49.9632L4.45037 50.3054L4.90075 50.5225L5.8404 50.1804ZM5.37057 50.3515L5.8404 50.1804L4.93965 49.7461L4.46983 49.9171L5.37057 50.3515ZM5.8404 50.1804L73.71 25.4694L72.8093 25.0351L4.93965 49.7461L5.8404 50.1804ZM73.033 25.5009C91.7307 29.207 113.59 28.5007 128.969 22.9012L128.068 22.4668C113.062 27.9304 91.7334 28.6205 73.4863 25.0036L73.033 25.5009ZM128.969 22.9012C143.403 17.6458 148.448 9.42058 143.93 1.58849L142.667 1.66987C147.076 9.31356 142.152 17.339 128.068 22.4668L128.969 22.9012ZM143.93 1.5885C143.82 1.39853 143.705 1.20879 143.584 1.01933L142.33 1.11454C142.448 1.29939 142.56 1.48451 142.667 1.66986L143.93 1.5885ZM142.487 1.238L143.418 1.6867L144.357 1.34457L143.427 0.895872L142.487 1.238ZM143.418 1.6867L277.82 66.4966L278.76 66.1544L144.357 1.34457L143.418 1.6867ZM277.82 66.4966L278.271 66.7137L279.21 66.3716L278.76 66.1544L277.82 66.4966ZM278.29 66.3255L277.82 66.4966L278.721 66.9309L279.191 66.7598L278.29 66.3255ZM277.82 66.4966L197.75 95.6497L198.651 96.084L278.721 66.9309L277.82 66.4966ZM197.75 95.6497L197.243 95.8344L198.144 96.2687L198.651 96.084L197.75 95.6497ZM198.299 95.9756C198.212 95.8792 198.125 95.7829 198.036 95.6866L196.83 95.844C196.917 95.9384 197.003 96.0329 197.088 96.1275L198.299 95.9756ZM198.036 95.6866C194.822 92.2079 190.057 88.8456 183.745 85.8018L182.805 86.1439C189.002 89.1321 193.678 92.4316 196.83 95.844L198.036 95.6866ZM183.745 85.8018C158.157 73.4632 116.631 70.9358 90.9924 80.2708L91.8931 80.7051C116.972 71.5739 157.674 74.0259 182.805 86.1439L183.745 85.8018ZM90.9924 80.2708C86.441 81.9279 82.702 83.8459 79.7743 85.9489L80.9117 86.2633C83.777 84.205 87.4368 82.3277 91.8931 80.7051L90.9924 80.2708ZM79.7743 85.9489C79.6625 86.0292 79.5519 86.1098 79.4424 86.1907L80.5867 86.5C80.6939 86.4209 80.8022 86.342 80.9117 86.2633L79.7743 85.9489ZM80.4844 86.1743L80.0118 85.9464L79.0721 86.2885L79.5447 86.5164L80.4844 86.1743ZM80.0118 85.9464L5.8404 50.1804L4.90075 50.5225L79.0721 86.2885L80.0118 85.9464ZM140.84 0.852621C146.076 8.56994 141.456 16.8301 127.167 22.0325L128.068 22.4668C142.721 17.1317 147.457 8.66084 142.088 0.748269L140.84 0.852621ZM127.167 22.0325C112.879 27.2348 92.7136 27.999 75.2066 24.7494L74.7858 25.2528C92.7357 28.5847 113.415 27.8019 128.068 22.4668L127.167 22.0325ZM75.2066 24.7494C74.9793 24.7072 74.7525 24.6644 74.5262 24.6208L74.0879 25.121C74.3201 25.1656 74.5527 25.2096 74.7858 25.2528L75.2066 24.7494ZM74.7574 25.0881L75.2834 24.8966L74.3827 24.4622L73.8567 24.6537L74.7574 25.0881ZM75.2834 24.8966L83.0174 22.0807L82.1166 21.6463L74.3827 24.4622L75.2834 24.8966ZM82.4121 22.1244C96.116 24.108 111.201 23.2442 122.15 19.2576L121.25 18.8233C110.635 22.6881 96.0111 23.5263 82.7219 21.6026L82.4121 22.1244ZM122.15 19.2576C133.1 15.271 137.246 9.13267 134.471 3.16997L133.195 3.22567C135.886 9.00794 131.864 14.9584 121.25 18.8233L122.15 19.2576ZM134.283 3.41499L141.177 0.905015L140.276 0.470669L133.383 2.98065L134.283 3.41499ZM141.177 0.905015L141.703 0.713505L140.802 0.279159L140.276 0.470669L141.177 0.905015ZM140.631 0.552358C140.702 0.652339 140.772 0.752432 140.84 0.852624L142.088 0.748266C142.019 0.645525 141.947 0.542866 141.874 0.440305L140.631 0.552358ZM121.25 18.8233C131.44 15.113 135.553 9.48068 133.486 3.92231L132.201 3.95613C134.203 9.34106 130.218 14.7955 120.349 18.3889L121.25 18.8233ZM84.3275 21.8207C97.1748 23.4538 111.059 22.5335 121.25 18.8233L120.349 18.3889C110.479 21.9823 97.0332 22.8743 84.5868 21.2921L84.3275 21.8207ZM83.546 21.7181C83.806 21.7533 84.0666 21.7876 84.3275 21.8207L84.5868 21.2921C84.3341 21.26 84.0817 21.2269 83.8298 21.1927L83.546 21.7181ZM83.8037 21.0321L83.2375 21.2382L84.1383 21.6726L84.7045 21.4664L83.8037 21.0321ZM92.4156 17.8965L83.8037 21.0321L84.7045 21.4664L93.3164 18.3308L92.4156 17.8965ZM112.787 15.098C107.177 17.1405 100.04 18.0293 92.8436 17.8378L92.8884 18.3896C100.393 18.5894 107.837 17.6622 113.687 15.5323L112.787 15.098ZM122.045 7.20587C121.493 10.2186 118.396 13.0554 112.787 15.098L113.687 15.5323C119.537 13.4024 122.767 10.443 123.342 7.30146L122.045 7.20587ZM131.695 3.59491L122.243 7.03649L123.144 7.47083L132.596 4.02926L131.695 3.59491ZM132.262 3.38876L131.695 3.59491L132.596 4.02926L133.162 3.82311L132.262 3.38876ZM133.486 3.92232C133.444 3.80941 133.4 3.69653 133.353 3.58371L132.071 3.62816C132.117 3.73745 132.16 3.84677 132.201 3.95612L133.486 3.92232ZM95.5271 17.5259L120.933 8.27576L120.032 7.84141L94.6264 17.0916L95.5271 17.5259ZM120.933 8.27576L121.694 7.99877L120.793 7.56442L120.032 7.84141L120.933 8.27576ZM120.598 7.72019C120.554 7.86314 120.504 8.00557 120.449 8.14739L121.733 8.28927C121.791 8.14111 121.843 7.99233 121.889 7.843L120.598 7.72019ZM120.449 8.14739C119.467 10.6387 116.607 12.9448 111.886 14.6636L112.787 15.098C117.718 13.3026 120.708 10.8924 121.733 8.28927L120.449 8.14739ZM111.886 14.6636C107.165 16.3824 101.316 17.2475 95.2914 17.307L95.4474 17.8597C101.742 17.7976 107.855 16.8934 112.787 15.098L111.886 14.6636ZM95.2914 17.307C94.9484 17.3104 94.6049 17.3111 94.261 17.3093L94.371 17.8622C94.7303 17.8641 95.0892 17.8633 95.4474 17.8597L95.2914 17.307ZM94.7664 17.8029L95.5271 17.5259L94.6264 17.0916L93.8656 17.3686L94.7664 17.8029ZM188.197 99.3019C185.787 95.7984 181.441 92.3766 175.169 89.3526L174.23 89.6947C180.356 92.6489 184.598 95.9896 186.95 99.4083L188.197 99.3019ZM175.169 89.3526C154.898 79.5775 121.974 77.5655 101.629 84.9729L102.53 85.4072C122.315 78.2037 154.415 80.1401 174.23 89.6947L175.169 89.3526ZM101.629 84.9729C96.8031 86.73 93.1292 88.8561 90.6047 91.2079L91.7984 91.4764C94.2558 89.1873 97.8313 87.1179 102.53 85.4072L101.629 84.9729ZM90.6047 91.2079C90.5093 91.2967 90.4156 91.3859 90.3236 91.4753L91.5248 91.7367C91.6144 91.6497 91.7056 91.5629 91.7984 91.4764L90.6047 91.2079ZM91.394 91.435L90.9033 91.1984L89.9637 91.5405L90.4544 91.7771L91.394 91.435ZM90.9033 91.1984L81.4327 86.6316L80.4931 86.9737L89.9637 91.5405L90.9033 91.1984ZM81.5372 86.9557C84.4133 84.7924 88.1652 82.8248 92.7939 81.1395L91.8931 80.7051C87.1634 82.4272 83.3284 84.4383 80.3885 86.6496L81.5372 86.9557ZM92.7939 81.1395C117.314 72.212 157.193 74.5887 181.865 86.486L182.805 86.1439C157.675 74.0259 116.972 71.5739 91.8931 80.7051L92.7939 81.1395ZM181.865 86.486C188.247 89.5634 192.982 92.9745 196.07 96.4953L197.285 96.3477C194.135 92.757 189.308 89.2796 182.805 86.1439L181.865 86.486ZM196.227 96.2043L187.859 99.251L188.76 99.6853L197.128 96.6386L196.227 96.2043ZM187.859 99.251L187.328 99.4443L188.229 99.8786L188.76 99.6853L187.859 99.251ZM188.405 99.6119C188.337 99.5085 188.268 99.4052 188.197 99.3019L186.95 99.4083C187.019 99.5091 187.087 99.61 187.153 99.7109L188.405 99.6119ZM175.767 103.899C175.181 100.054 171.439 96.0936 164.572 92.7824L163.633 93.1245C170.284 96.3317 173.902 100.164 174.468 103.881L175.767 103.899ZM164.572 92.7824C149.617 85.5707 125.294 84.074 110.243 89.5538L111.144 89.9882C125.635 84.7123 149.134 86.1332 163.633 93.1245L164.572 92.7824ZM110.243 89.5538C105.447 91.3003 102.191 93.5386 100.468 96.0109L101.72 96.2139C103.381 93.8292 106.52 91.6719 111.144 89.9882L110.243 89.5538ZM100.468 96.0109C100.398 96.1125 100.329 96.2146 100.264 96.317L101.522 96.5092C101.586 96.4104 101.651 96.312 101.72 96.214L100.468 96.0109ZM101.363 96.242L100.837 95.9884L99.8972 96.3305L100.423 96.5842L101.363 96.242ZM100.837 95.9884L92.381 91.9109L91.4413 92.253L99.8972 96.3305L100.837 95.9884ZM92.5147 92.2097C94.9112 89.7966 98.5492 87.6188 103.431 85.8416L102.53 85.4072C97.512 87.2342 93.7712 89.4735 91.3076 91.9542L92.5147 92.2097ZM103.431 85.8416C122.656 78.8417 153.934 80.703 173.29 90.0369L174.23 89.6947C154.416 80.1402 122.315 78.2036 102.53 85.4072L103.431 85.8416ZM173.29 90.0369C179.621 93.0896 183.885 96.561 186.084 100.095L187.341 100.004C185.086 96.3792 180.714 92.8214 174.23 89.6947L173.29 90.0369ZM186.262 99.8323L175.335 103.811L176.236 104.245L187.163 100.267L186.262 99.8323ZM175.335 103.811L174.713 104.037L175.614 104.472L176.236 104.245L175.335 103.811ZM175.813 104.27C175.801 104.146 175.786 104.023 175.767 103.899L174.468 103.881C174.486 104.001 174.501 104.12 174.513 104.24L175.813 104.27ZM142.131 115.901L141.661 116.072L142.562 116.506L143.031 116.335L142.131 115.901ZM142.581 116.118L142.131 115.901L141.191 116.243L141.641 116.46L142.581 116.118ZM142.131 115.901L136.546 113.208L135.606 113.55L141.191 116.243L142.131 115.901ZM136.546 113.208L135.843 112.869L134.904 113.211L135.606 113.55L136.546 113.208ZM135.292 113.309C135.635 113.342 135.978 113.372 136.322 113.398L136.434 112.855C136.107 112.829 135.781 112.801 135.455 112.77L135.292 113.309ZM136.322 113.398C143.209 113.934 150.212 113.303 155.501 111.377L154.6 110.943C149.601 112.763 142.975 113.363 136.434 112.855L136.322 113.398ZM155.501 111.377C165.536 107.724 165.41 100.872 155.491 96.0889L154.551 96.4311C164.013 100.994 164.075 107.493 154.6 110.943L155.501 111.377ZM155.491 96.0889C145.571 91.3058 129.397 90.2974 119.362 93.9511L120.263 94.3854C129.738 90.9357 145.089 91.8683 154.551 96.4311L155.491 96.0889ZM119.362 93.9511C114.074 95.8767 111.605 98.6943 111.91 101.627L113.21 101.656C112.921 98.8711 115.264 96.2057 120.263 94.3854L119.362 93.9511ZM111.91 101.627C111.925 101.773 111.947 101.92 111.976 102.066L113.273 102.074C113.245 101.934 113.224 101.795 113.21 101.656L111.91 101.627ZM113.094 101.899L112.391 101.56L111.452 101.902L112.154 102.241L113.094 101.899ZM112.391 101.56L102.427 96.7554L101.488 97.0975L111.452 101.902L112.391 101.56ZM102.59 97.0167C104.065 94.48 107.216 92.1807 112.045 90.4225L111.144 89.9882C106.128 91.8147 102.855 94.2037 101.325 96.8362L102.59 97.0167ZM112.045 90.4225C125.976 85.3503 148.652 86.6961 162.693 93.4666L163.633 93.1245C149.134 86.1334 125.635 84.7122 111.144 89.9882L112.045 90.4225ZM162.693 93.4666C169.632 96.8125 173.147 100.851 173.243 104.693L174.544 104.741C174.445 100.761 170.804 96.5825 163.633 93.1245L162.693 93.4666ZM173.443 104.5L142.131 115.901L143.031 116.335L174.344 104.934L173.443 104.5ZM134.348 112.148L114.589 102.62L113.649 102.962L133.409 112.49L134.348 112.148ZM153.699 110.509C148.35 112.456 140.99 112.927 134.005 112.054L133.752 112.584C141.12 113.504 148.92 113.011 154.6 110.943L153.699 110.509ZM153.611 96.7732C162.616 101.115 162.615 107.262 153.699 110.509L154.6 110.943C164.075 107.493 164.013 100.994 154.551 96.4311L153.611 96.7732ZM121.164 94.8198C130.079 91.5737 144.607 92.4312 153.611 96.7732L154.551 96.4311C145.089 91.8684 129.738 90.9356 120.263 94.3854L121.164 94.8198ZM114.762 102.775C113.676 99.7554 115.815 96.7674 121.164 94.8198L120.263 94.3854C114.583 96.4534 112.33 99.621 113.476 102.806L114.762 102.775ZM143.958 100.717C146.986 102.177 147.024 104.269 143.959 105.385L144.86 105.819C148.487 104.499 148.381 102.054 144.898 100.375L143.958 100.717ZM132.926 100.065C135.992 98.9486 140.93 99.2567 143.958 100.717L144.898 100.375C141.414 98.6948 135.652 98.3098 132.026 99.6303L132.926 100.065ZM132.928 104.733C129.9 103.273 129.861 101.181 132.926 100.065L132.026 99.6303C128.399 100.951 128.504 103.395 131.988 105.075L132.928 104.733ZM143.959 105.385C140.894 106.501 135.955 106.193 132.928 104.733L131.988 105.075C135.471 106.755 141.233 107.14 144.86 105.819L143.959 105.385ZM143.959 105.385C147.025 104.268 146.985 102.176 143.958 100.717L143.018 101.059C145.587 102.298 145.565 104.038 143.058 104.95L143.959 105.385ZM132.928 104.733C135.954 106.192 140.893 106.501 143.959 105.385L143.058 104.95C140.552 105.863 136.436 105.629 133.867 104.391L132.928 104.733ZM132.926 100.065C129.86 101.181 129.901 103.273 132.928 104.733L133.867 104.391C131.298 103.152 131.32 101.412 133.827 100.499L132.926 100.065ZM143.958 100.717C140.931 99.2572 135.992 98.9483 132.926 100.065L133.827 100.499C136.334 99.5863 140.449 99.82 143.018 101.059L143.958 100.717ZM149.926 108.262C156.339 105.927 156.224 101.567 149.943 98.5376L149.003 98.8797C154.828 101.689 154.877 105.697 149.025 107.828L149.926 108.262ZM126.942 106.912C133.224 109.941 143.513 110.597 149.926 108.262L149.025 107.828C143.173 109.958 133.707 109.379 127.882 106.57L126.942 106.912ZM126.959 97.1874C120.547 99.5223 120.661 103.883 126.942 106.912L127.882 106.57C122.057 103.761 122.008 99.7525 127.86 97.6218L126.959 97.1874ZM149.943 98.5376C143.661 95.5085 133.372 94.8526 126.959 97.1874L127.86 97.6218C133.712 95.491 143.178 96.0708 149.003 98.8797L149.943 98.5376ZM148.063 99.2218C153.43 101.81 153.417 105.466 148.124 107.393L149.025 107.828C154.878 105.697 154.828 101.688 149.003 98.8797L148.063 99.2218ZM128.761 98.0561C134.054 96.1289 142.696 96.6338 148.063 99.2218L149.003 98.8797C143.178 96.071 133.713 95.4908 127.86 97.6218L128.761 98.0561ZM128.822 106.228C123.455 103.64 123.468 99.9833 128.761 98.0561L127.86 97.6218C122.007 99.7527 122.057 103.761 127.882 106.57L128.822 106.228ZM148.124 107.393C142.831 109.321 134.189 108.816 128.822 106.228L127.882 106.57C133.707 109.378 143.172 109.959 149.025 107.828L148.124 107.393Z" fill="#E22E00" fill-opacity="0.77" mask="url(#path-2-inside-1_80_195)"/>
<path d="M161.216 40.1721C163.076 41.0522 163.061 42.3026 161.272 42.9691C159.482 43.6357 156.523 43.4934 154.663 42.6133C152.803 41.7332 152.818 40.4828 154.607 39.8163C156.397 39.1497 159.356 39.292 161.216 40.1721Z" stroke="#E22E00" stroke-opacity="0.77"/>
<path d="M164.961 38.777C168.911 40.6459 168.914 43.3224 165.056 44.7594C161.198 46.1965 154.868 45.8773 150.918 44.0084C146.968 42.1396 146.966 39.4631 150.823 38.0261C154.681 36.589 161.011 36.9082 164.961 38.777Z" stroke="#E22E00" stroke-opacity="0.77"/>
<path d="M175.818 34.4127C186.247 39.3466 186.303 46.4441 176.034 50.2697C165.764 54.0954 148.984 53.2277 138.555 48.2938C128.126 43.3599 128.07 36.2624 138.339 32.4368C148.609 28.6112 165.389 29.4788 175.818 34.4127Z" stroke="#E22E00" stroke-opacity="0.77"/>
<path d="M183.686 31.8014C198.086 38.6139 198.176 48.4211 183.977 53.7107C169.777 59.0003 146.592 57.7965 132.193 50.984C117.793 44.1715 117.703 34.3643 131.902 29.0747C146.102 23.7851 169.287 24.9889 183.686 31.8014Z" stroke="#E22E00" stroke-opacity="0.77"/>
<path d="M190.049 29.1111C208.42 37.8022 208.543 50.3191 190.413 57.0726C172.284 63.8262 142.695 62.2863 124.324 53.5952C105.953 44.9041 105.83 32.3873 123.96 25.6337C142.089 18.8802 171.678 20.4201 190.049 29.1111Z" stroke="#E22E00" stroke-opacity="0.77"/>
<path d="M169.077 36.9238C175.744 40.078 175.769 44.6085 169.222 47.0472C162.676 49.4859 151.964 48.9367 145.296 45.7826C138.629 42.6284 138.604 38.0979 145.151 35.6592C151.697 33.2205 162.41 33.7697 169.077 36.9238Z" stroke="#E22E00" stroke-opacity="0.77"/>
<path d="M81.5358 50.5667C82.65 51.0939 82.6285 51.8352 81.5775 52.2267C80.5264 52.6182 78.7706 52.5391 77.6563 52.0119C76.542 51.4847 76.5636 50.7434 77.6146 50.3519C78.6656 49.9604 80.4215 50.0396 81.5358 50.5667Z" stroke="#E22E00" stroke-opacity="0.77"/>
<path d="M83.944 49.6695C86.4022 50.8325 86.3919 52.4909 84.0108 53.3779C81.6298 54.2649 77.7062 54.0719 75.248 52.909C72.7898 51.746 72.8001 50.0876 75.1812 49.2006C77.5623 48.3136 81.4858 48.5066 83.944 49.6695Z" stroke="#E22E00" stroke-opacity="0.77"/>
<path d="M90.9255 46.8631C97.5499 49.9971 97.5745 54.4984 91.0702 56.9214C84.566 59.3443 73.9227 58.7987 67.2983 55.6648C60.6739 52.5308 60.6493 48.0295 67.1535 45.6065C73.6578 43.1836 84.3011 43.7291 90.9255 46.8631Z" stroke="#E22E00" stroke-opacity="0.77"/>
<path d="M95.9854 45.1839C105.163 49.5258 105.209 55.7696 96.1778 59.134C87.1465 62.4984 72.3845 61.7366 63.2067 57.3946C54.0288 53.0527 53.9829 46.8089 63.0142 43.4445C72.0456 40.0801 86.8075 40.8419 95.9854 45.1839Z" stroke="#E22E00" stroke-opacity="0.77"/>
<path d="M100.077 43.4538C111.808 49.0038 111.875 56.99 100.317 61.2958C88.7586 65.6016 69.8781 64.6237 58.1468 59.0737C46.4155 53.5237 46.3482 45.5374 57.9066 41.2317C69.465 36.9259 88.3456 37.9038 100.077 43.4538Z" stroke="#E22E00" stroke-opacity="0.77"/>
<path d="M86.5905 48.4778C90.7959 50.4673 90.8002 53.3179 86.69 54.849C82.5799 56.3801 75.8384 56.0393 71.6331 54.0498C67.4277 52.0603 67.4234 49.2097 71.5336 47.6786C75.6437 46.1475 82.3852 46.4883 86.5905 48.4778Z" stroke="#E22E00" stroke-opacity="0.77"/>
</g>
<defs>
<filter id="filter0_d_80_195" x="0" y="0.00250244" width="283.661" height="126.674" filterUnits="userSpaceOnUse" color-interpolation-filters="sRGB">
<feFlood flood-opacity="0" result="BackgroundImageFix"/>
<feColorMatrix in="SourceAlpha" type="matrix" values="0 0 0 0 0 0 0 0 0 0 0 0 0 0 0 0 0 0 127 0" result="hardAlpha"/>
<feOffset dy="6"/>
<feGaussianBlur stdDeviation="2"/>
<feComposite in2="hardAlpha" operator="out"/>
<feColorMatrix type="matrix" values="0 0 0 0 0 0 0 0 0 0 0 0 0 0 0 0 0 0 0.25 0"/>
<feBlend mode="normal" in2="BackgroundImageFix" result="effect1_dropShadow_80_195"/>
<feBlend mode="normal" in="SourceGraphic" in2="effect1_dropShadow_80_195" result="shape"/>
</filter>
<linearGradient id="paint0_linear_80_195" x1="142.173" y1="0.79718" x2="141.943" y2="116.611" gradientUnits="userSpaceOnUse">
<stop stop-color="#FFA62E" stop-opacity="0.22"/>
<stop offset="0.536458" stop-color="#FFA62E" stop-opacity="0.71"/>
<stop offset="1" stop-color="#FFA62E" stop-opacity="0.88"/>
</linearGradient>
</defs>
</svg>
