<svg width="284" height="127" viewBox="0 0 284 127" fill="none" xmlns="http://www.w3.org/2000/svg">
<rect width="146.888" height="152.822" transform="matrix(0.937931 -0.346823 0.908458 0.417977 4.97948 52.6833)" fill="#FFA62E" fill-opacity="0.73"/>
<g filter="url(#filter0_d_37_29)">
<mask id="path-2-inside-1_37_29" fill="white">
<path fill-rule="evenodd" clip-rule="evenodd" d="M72.9083 27.0769L72.6215 27.1837L4.46855 52.5722L4 52.7468L4.45197 52.9606L79.813 88.6134L80.4322 88.9064L80.8548 88.5893C83.3808 86.694 86.5593 84.94 90.3924 83.3821C86.4607 84.9803 83.216 86.7862 80.6577 88.7403L80.4372 88.9087L80.7646 89.0636L90.7613 93.793L91.4514 94.1195L91.8314 93.7447C94.0469 91.5598 97.2528 89.5574 101.454 87.853C97.1172 89.6127 93.8383 91.6924 91.6158 93.9637L91.4596 94.1234L91.7518 94.2616L100.766 98.526L101.571 98.9072L101.864 98.4429C103.333 96.1131 106.178 93.9755 110.409 92.2512C105.986 94.0543 103.074 96.3131 101.669 98.7713L101.587 98.9146L101.834 99.0314L112.538 104.096L113.815 104.7L113.672 104.001C113.72 104.218 113.784 104.434 113.864 104.651L113.896 104.738L114.039 104.805L133.868 114.187L134.011 114.254L134.212 114.278C134.716 114.337 135.221 114.389 135.727 114.435L134.092 114.292L135.368 114.896L142.13 118.095L142.582 118.309L143.051 118.134L174.746 106.327L174.949 106.252L174.945 106.132C174.941 105.988 174.931 105.843 174.917 105.698L174.976 106.242L176.012 105.855L187.53 101.565L187.808 101.461L187.706 101.3C187.681 101.261 187.656 101.221 187.63 101.181L187.815 101.459L188.593 101.169L197.468 97.8628L197.779 97.7468L197.623 97.5707C197.614 97.5607 197.605 97.5507 197.596 97.5407L197.783 97.7456L198.481 97.4854L279.307 67.3759L279.776 67.2014L279.324 66.9876L143.058 2.52119L141.963 2.74799C146.685 10.0332 142.802 17.8076 130.444 23.1667C143.183 17.6421 146.915 9.55133 141.502 2.07717L141.187 1.64171L140.429 1.92397L133.029 4.68044L132.786 4.77124L132.772 4.77631L131.912 5.09687L121.92 8.81883L121.8 8.8638L121.741 8.88551L120.474 9.35751L93.6204 19.3612L92.3533 19.8332L92.295 19.8549L92.1743 19.8999L83.0213 23.3096L82.1608 23.6302L82.1472 23.6352L81.9034 23.726L73.666 26.7946L72.9152 27.0743L72.9083 27.0769ZM83.2125 23.7717C94.6567 25.2526 106.997 24.6932 116.866 21.9514C107.031 24.6838 94.7407 25.2484 83.3333 23.7872L83.2125 23.7717ZM94.0956 19.8511C99.8821 19.8417 105.558 19.1283 110.357 17.6784C105.568 19.1253 99.9033 19.8389 94.1294 19.851L94.0956 19.8511ZM121.577 9.61175L121.572 9.62795C120.878 11.9631 118.632 14.1767 114.849 15.9729C118.641 14.1725 120.888 11.9532 121.577 9.61175ZM132.981 5.22928L133.004 5.28371C135.406 10.9222 131.399 16.7268 121.076 20.5895C131.431 16.7149 135.432 10.8862 132.981 5.22928ZM120.589 96.1801C115.797 97.9651 113.463 100.519 113.566 103.187C113.46 100.518 115.792 97.9669 120.589 96.1801ZM73.7235 27.2274C85.0316 29.3349 97.4739 29.7915 108.838 28.5041C97.5324 29.7849 85.1603 29.3393 73.9007 27.2601L73.7235 27.2274ZM5.37249 52.9999L4.92052 52.786L5.38906 52.6115L73.0735 27.3976C91.5725 30.9219 113.161 30.0635 128.312 24.4193C142.532 19.122 147.456 10.96 142.935 3.25543C142.825 3.06858 142.71 2.882 142.589 2.69574L143.523 3.13752L278.403 66.9483L278.855 67.1621L278.387 67.3366L198.535 97.0831L198.029 97.2716C197.943 97.1767 197.855 97.082 197.766 96.9873C194.558 93.5654 189.813 90.2696 183.536 87.3001C158.087 75.2603 116.956 73.0758 91.6659 82.4968C87.1743 84.1701 83.4891 86.0951 80.6082 88.1972C80.4981 88.2775 80.3892 88.358 80.2815 88.4389L79.8072 88.2145L5.37249 52.9999ZM141.095 2.44033C146.455 10.2157 141.839 18.6157 127.408 23.9917C112.977 29.3676 92.5605 30.2926 74.8081 27.1336C74.5776 27.0926 74.3476 27.0509 74.118 27.0085L74.6425 26.8131L82.3554 23.9398C95.866 25.7933 110.714 24.8321 121.466 20.8265C132.219 16.8209 136.258 10.7463 133.481 4.89427L140.356 2.3332L140.881 2.1378C140.954 2.23853 141.025 2.33938 141.095 2.44033ZM132.498 5.64299C134.572 11.0994 130.565 16.6727 120.562 20.3988C110.56 24.125 96.9017 25.1325 84.2433 23.6188C83.9862 23.588 83.7295 23.5562 83.4732 23.5234L84.0379 23.3131L92.6263 20.1137C99.9781 20.2548 107.262 19.2928 112.976 17.1641C118.69 15.0354 121.832 12.1139 122.372 9.03266L131.799 5.52103L132.364 5.31069C132.411 5.4214 132.455 5.53217 132.498 5.64299ZM94.831 19.2924L120.168 9.85396L120.926 9.57134C120.883 9.71781 120.833 9.86378 120.777 10.0092C119.792 12.5638 116.885 14.9436 112.072 16.7364C107.259 18.5293 101.285 19.4583 95.1257 19.5648C94.7751 19.5709 94.4239 19.5743 94.0723 19.575L94.831 19.2924ZM187.934 100.65C185.527 97.2068 181.208 93.8575 174.988 90.9145C154.873 81.3986 122.347 79.6657 102.337 87.1199C97.588 88.889 93.9789 91.0136 91.5053 93.3525C91.4119 93.4409 91.32 93.5295 91.2299 93.6184L90.7374 93.3855L81.2332 88.8891C84.1249 86.6803 87.9034 84.6629 92.5699 82.9245C117.302 73.7113 157.609 75.8267 182.599 87.6492C189.064 90.7079 193.871 94.1166 197.016 97.649L188.671 100.758L188.141 100.955C188.074 100.853 188.005 100.752 187.934 100.65ZM175.512 105.278C174.908 101.5 171.199 97.6317 164.416 94.4228C149.637 87.4308 125.715 86.1495 110.985 91.6368C106.288 93.3868 103.107 95.6082 101.433 98.0493C101.364 98.1496 101.298 98.2503 101.234 98.3514L100.706 98.1017L92.2203 94.087C94.6322 91.6221 98.3051 89.3863 103.241 87.5475C122.693 80.3012 154.396 81.965 174.05 91.2636C180.481 94.3057 184.825 97.7881 187.079 101.351L176.181 105.411L175.56 105.642C175.547 105.52 175.531 105.399 175.512 105.278ZM143.067 117.746L142.599 117.921L142.147 117.707L136.542 115.055L135.837 114.722C136.172 114.751 136.507 114.777 136.842 114.801C143.559 115.273 150.369 114.607 155.499 112.696C165.228 109.072 165.084 102.398 155.359 97.7967C145.634 93.1958 129.865 92.3422 120.137 95.9662C115.007 97.8773 112.622 100.637 112.939 103.493C112.955 103.635 112.978 103.778 113.007 103.921L112.302 103.587L102.302 98.8568C103.786 96.2612 106.98 93.8933 111.889 92.0644C126.061 86.785 149.159 87.9972 163.479 94.7719C170.559 98.1214 174.168 102.204 174.294 106.113L143.067 117.746ZM114.507 104.631L134.337 114.012C141.52 114.855 149.096 114.317 154.595 112.268C163.766 108.852 163.688 102.529 154.422 98.1457C145.156 93.7621 130.211 92.9778 121.041 96.3939C115.541 98.4425 113.368 101.537 114.507 104.631ZM144.818 107.217C148.154 105.974 148.065 103.706 144.798 102.161C141.531 100.615 136.178 100.308 132.842 101.551C129.505 102.794 129.594 105.062 132.861 106.608C136.128 108.153 141.481 108.46 144.818 107.217ZM143.861 102.51C146.669 103.838 146.692 105.754 143.914 106.789C141.135 107.825 136.606 107.587 133.798 106.259C130.99 104.93 130.967 103.014 133.746 101.979C136.524 100.944 141.053 101.181 143.861 102.51ZM149.83 100.286C155.905 103.16 156.017 107.344 149.902 109.622C143.786 111.901 133.904 111.356 127.829 108.482C121.754 105.608 121.642 101.424 127.757 99.1461C133.873 96.8679 143.755 97.4124 149.83 100.286ZM148.998 109.195C154.555 107.124 154.508 103.292 148.893 100.635C143.277 97.9788 134.219 97.5034 128.661 99.5738C123.104 101.644 123.151 105.476 128.766 108.133C134.382 110.79 143.44 111.265 148.998 109.195Z"/>
</mask>
<path fill-rule="evenodd" clip-rule="evenodd" d="M72.9083 27.0769L72.6215 27.1837L4.46855 52.5722L4 52.7468L4.45197 52.9606L79.813 88.6134L80.4322 88.9064L80.8548 88.5893C83.3808 86.694 86.5593 84.94 90.3924 83.3821C86.4607 84.9803 83.216 86.7862 80.6577 88.7403L80.4372 88.9087L80.7646 89.0636L90.7613 93.793L91.4514 94.1195L91.8314 93.7447C94.0469 91.5598 97.2528 89.5574 101.454 87.853C97.1172 89.6127 93.8383 91.6924 91.6158 93.9637L91.4596 94.1234L91.7518 94.2616L100.766 98.526L101.571 98.9072L101.864 98.4429C103.333 96.1131 106.178 93.9755 110.409 92.2512C105.986 94.0543 103.074 96.3131 101.669 98.7713L101.587 98.9146L101.834 99.0314L112.538 104.096L113.815 104.7L113.672 104.001C113.72 104.218 113.784 104.434 113.864 104.651L113.896 104.738L114.039 104.805L133.868 114.187L134.011 114.254L134.212 114.278C134.716 114.337 135.221 114.389 135.727 114.435L134.092 114.292L135.368 114.896L142.13 118.095L142.582 118.309L143.051 118.134L174.746 106.327L174.949 106.252L174.945 106.132C174.941 105.988 174.931 105.843 174.917 105.698L174.976 106.242L176.012 105.855L187.53 101.565L187.808 101.461L187.706 101.3C187.681 101.261 187.656 101.221 187.63 101.181L187.815 101.459L188.593 101.169L197.468 97.8628L197.779 97.7468L197.623 97.5707C197.614 97.5607 197.605 97.5507 197.596 97.5407L197.783 97.7456L198.481 97.4854L279.307 67.3759L279.776 67.2014L279.324 66.9876L143.058 2.52119L141.963 2.74799C146.685 10.0332 142.802 17.8076 130.444 23.1667C143.183 17.6421 146.915 9.55133 141.502 2.07717L141.187 1.64171L140.429 1.92397L133.029 4.68044L132.786 4.77124L132.772 4.77631L131.912 5.09687L121.92 8.81883L121.8 8.8638L121.741 8.88551L120.474 9.35751L93.6204 19.3612L92.3533 19.8332L92.295 19.8549L92.1743 19.8999L83.0213 23.3096L82.1608 23.6302L82.1472 23.6352L81.9034 23.726L73.666 26.7946L72.9152 27.0743L72.9083 27.0769ZM83.2125 23.7717C94.6567 25.2526 106.997 24.6932 116.866 21.9514C107.031 24.6838 94.7407 25.2484 83.3333 23.7872L83.2125 23.7717ZM94.0956 19.8511C99.8821 19.8417 105.558 19.1283 110.357 17.6784C105.568 19.1253 99.9033 19.8389 94.1294 19.851L94.0956 19.8511ZM121.577 9.61175L121.572 9.62795C120.878 11.9631 118.632 14.1767 114.849 15.9729C118.641 14.1725 120.888 11.9532 121.577 9.61175ZM132.981 5.22928L133.004 5.28371C135.406 10.9222 131.399 16.7268 121.076 20.5895C131.431 16.7149 135.432 10.8862 132.981 5.22928ZM120.589 96.1801C115.797 97.9651 113.463 100.519 113.566 103.187C113.46 100.518 115.792 97.9669 120.589 96.1801ZM73.7235 27.2274C85.0316 29.3349 97.4739 29.7915 108.838 28.5041C97.5324 29.7849 85.1603 29.3393 73.9007 27.2601L73.7235 27.2274ZM5.37249 52.9999L4.92052 52.786L5.38906 52.6115L73.0735 27.3976C91.5725 30.9219 113.161 30.0635 128.312 24.4193C142.532 19.122 147.456 10.96 142.935 3.25543C142.825 3.06858 142.71 2.882 142.589 2.69574L143.523 3.13752L278.403 66.9483L278.855 67.1621L278.387 67.3366L198.535 97.0831L198.029 97.2716C197.943 97.1767 197.855 97.082 197.766 96.9873C194.558 93.5654 189.813 90.2696 183.536 87.3001C158.087 75.2603 116.956 73.0758 91.6659 82.4968C87.1743 84.1701 83.4891 86.0951 80.6082 88.1972C80.4981 88.2775 80.3892 88.358 80.2815 88.4389L79.8072 88.2145L5.37249 52.9999ZM141.095 2.44033C146.455 10.2157 141.839 18.6157 127.408 23.9917C112.977 29.3676 92.5605 30.2926 74.8081 27.1336C74.5776 27.0926 74.3476 27.0509 74.118 27.0085L74.6425 26.8131L82.3554 23.9398C95.866 25.7933 110.714 24.8321 121.466 20.8265C132.219 16.8209 136.258 10.7463 133.481 4.89427L140.356 2.3332L140.881 2.1378C140.954 2.23853 141.025 2.33938 141.095 2.44033ZM132.498 5.64299C134.572 11.0994 130.565 16.6727 120.562 20.3988C110.56 24.125 96.9017 25.1325 84.2433 23.6188C83.9862 23.588 83.7295 23.5562 83.4732 23.5234L84.0379 23.3131L92.6263 20.1137C99.9781 20.2548 107.262 19.2928 112.976 17.1641C118.69 15.0354 121.832 12.1139 122.372 9.03266L131.799 5.52103L132.364 5.31069C132.411 5.4214 132.455 5.53217 132.498 5.64299ZM94.831 19.2924L120.168 9.85396L120.926 9.57134C120.883 9.71781 120.833 9.86378 120.777 10.0092C119.792 12.5638 116.885 14.9436 112.072 16.7364C107.259 18.5293 101.285 19.4583 95.1257 19.5648C94.7751 19.5709 94.4239 19.5743 94.0723 19.575L94.831 19.2924ZM187.934 100.65C185.527 97.2068 181.208 93.8575 174.988 90.9145C154.873 81.3986 122.347 79.6657 102.337 87.1199C97.588 88.889 93.9789 91.0136 91.5053 93.3525C91.4119 93.4409 91.32 93.5295 91.2299 93.6184L90.7374 93.3855L81.2332 88.8891C84.1249 86.6803 87.9034 84.6629 92.5699 82.9245C117.302 73.7113 157.609 75.8267 182.599 87.6492C189.064 90.7079 193.871 94.1166 197.016 97.649L188.671 100.758L188.141 100.955C188.074 100.853 188.005 100.752 187.934 100.65ZM175.512 105.278C174.908 101.5 171.199 97.6317 164.416 94.4228C149.637 87.4308 125.715 86.1495 110.985 91.6368C106.288 93.3868 103.107 95.6082 101.433 98.0493C101.364 98.1496 101.298 98.2503 101.234 98.3514L100.706 98.1017L92.2203 94.087C94.6322 91.6221 98.3051 89.3863 103.241 87.5475C122.693 80.3012 154.396 81.965 174.05 91.2636C180.481 94.3057 184.825 97.7881 187.079 101.351L176.181 105.411L175.56 105.642C175.547 105.52 175.531 105.399 175.512 105.278ZM143.067 117.746L142.599 117.921L142.147 117.707L136.542 115.055L135.837 114.722C136.172 114.751 136.507 114.777 136.842 114.801C143.559 115.273 150.369 114.607 155.499 112.696C165.228 109.072 165.084 102.398 155.359 97.7967C145.634 93.1958 129.865 92.3422 120.137 95.9662C115.007 97.8773 112.622 100.637 112.939 103.493C112.955 103.635 112.978 103.778 113.007 103.921L112.302 103.587L102.302 98.8568C103.786 96.2612 106.98 93.8933 111.889 92.0644C126.061 86.785 149.159 87.9972 163.479 94.7719C170.559 98.1214 174.168 102.204 174.294 106.113L143.067 117.746ZM114.507 104.631L134.337 114.012C141.52 114.855 149.096 114.317 154.595 112.268C163.766 108.852 163.688 102.529 154.422 98.1457C145.156 93.7621 130.211 92.9778 121.041 96.3939C115.541 98.4425 113.368 101.537 114.507 104.631ZM144.818 107.217C148.154 105.974 148.065 103.706 144.798 102.161C141.531 100.615 136.178 100.308 132.842 101.551C129.505 102.794 129.594 105.062 132.861 106.608C136.128 108.153 141.481 108.46 144.818 107.217ZM143.861 102.51C146.669 103.838 146.692 105.754 143.914 106.789C141.135 107.825 136.606 107.587 133.798 106.259C130.99 104.93 130.967 103.014 133.746 101.979C136.524 100.944 141.053 101.181 143.861 102.51ZM149.83 100.286C155.905 103.16 156.017 107.344 149.902 109.622C143.786 111.901 133.904 111.356 127.829 108.482C121.754 105.608 121.642 101.424 127.757 99.1461C133.873 96.8679 143.755 97.4124 149.83 100.286ZM148.998 109.195C154.555 107.124 154.508 103.292 148.893 100.635C143.277 97.9788 134.219 97.5034 128.661 99.5738C123.104 101.644 123.151 105.476 128.766 108.133C134.382 110.79 143.44 111.265 148.998 109.195Z" fill="#CDCDCD"/>
<path d="M72.9083 27.0769L73.3603 27.2907L72.9083 27.0769ZM4 52.7468L3.54803 52.5329L3.07948 52.7075L3.53145 52.9213L4 52.7468ZM80.4322 88.9064L79.9637 89.0809L80.5829 89.3739L81.0055 89.0568L80.4322 88.9064ZM80.8548 88.5893L81.4281 88.7397L81.4281 88.7397L80.8548 88.5893ZM90.3924 83.3821L90.8627 83.5888L89.922 83.1754L90.3924 83.3821ZM80.6577 88.7403L80.0822 88.5915L80.0822 88.5915L80.6577 88.7403ZM80.4372 88.9087L79.8617 88.7599L79.6413 88.9284L79.9687 89.0833L80.4372 88.9087ZM91.4514 94.1195L90.9829 94.294L91.6729 94.6205L92.053 94.2457L91.4514 94.1195ZM91.8314 93.7447L92.433 93.871L92.433 93.871L91.8314 93.7447ZM101.454 87.853L101.924 88.0598L100.984 87.6461L101.454 87.853ZM91.6158 93.9637L92.2203 94.087L92.2203 94.087L91.6158 93.9637ZM91.4596 94.1234L90.8551 94.0001L90.699 94.1597L90.9911 94.2979L91.4596 94.1234ZM101.571 98.9072L101.103 99.0817L101.909 99.4629L102.201 98.9986L101.571 98.9072ZM101.864 98.4429L101.234 98.3514L101.234 98.3514L101.864 98.4429ZM110.409 92.2512L110.88 92.4577L109.938 92.0448L110.409 92.2512ZM101.669 98.7713L101.035 98.6857L101.035 98.6857L101.669 98.7713ZM101.587 98.9146L100.954 98.829L100.872 98.9723L101.119 99.0891L101.587 98.9146ZM113.815 104.7L113.347 104.874L114.624 105.478L114.464 104.699L113.815 104.7ZM113.672 104.001L114.32 103.998L113.024 104.002L113.672 104.001ZM113.864 104.651L114.507 104.631L114.507 104.631L113.864 104.651ZM113.896 104.738L113.253 104.758L113.285 104.845L113.428 104.912L113.896 104.738ZM114.039 104.805L114.507 104.631L114.039 104.805ZM133.868 114.187L133.4 114.361L133.868 114.187ZM134.011 114.254L133.542 114.429L133.685 114.496L133.886 114.52L134.011 114.254ZM134.212 114.278L134.088 114.543L134.088 114.543L134.212 114.278ZM135.727 114.435L135.647 114.705L135.812 114.165L135.727 114.435ZM134.092 114.292L134.171 114.022L132.346 113.863L133.623 114.467L134.092 114.292ZM142.13 118.095L142.599 117.921L142.13 118.095ZM142.582 118.309L142.113 118.484L142.565 118.697L143.034 118.523L142.582 118.309ZM143.051 118.134L142.599 117.921L143.051 118.134ZM174.949 106.252L175.401 106.465L175.604 106.39L175.6 106.271L174.949 106.252ZM174.945 106.132L175.596 106.151L175.596 106.151L174.945 106.132ZM174.917 105.698L175.568 105.708L174.267 105.686L174.917 105.698ZM174.976 106.242L174.325 106.231L174.391 106.842L175.428 106.456L174.976 106.242ZM176.012 105.855L175.56 105.642L176.012 105.855ZM187.53 101.565L187.982 101.779L187.53 101.565ZM187.808 101.461L188.26 101.675L188.538 101.572L188.436 101.411L187.808 101.461ZM187.706 101.3L187.079 101.351L187.079 101.351L187.706 101.3ZM187.63 101.181L188.256 101.127L187.003 101.233L187.63 101.181ZM187.815 101.459L187.189 101.513L187.488 101.963L188.267 101.673L187.815 101.459ZM188.593 101.169L189.045 101.383L188.593 101.169ZM197.779 97.7468L198.231 97.9606L198.543 97.8445L198.386 97.6685L197.779 97.7468ZM197.623 97.5707L197.016 97.649L197.016 97.649L197.623 97.5707ZM197.596 97.5407L198.201 97.4603L196.989 97.6193L197.596 97.5407ZM197.783 97.7456L197.178 97.826L197.536 98.2196L198.235 97.9594L197.783 97.7456ZM198.481 97.4854L198.933 97.6992L198.481 97.4854ZM279.307 67.3759L278.855 67.1621L279.307 67.3759ZM279.776 67.2014L280.228 67.4152L280.696 67.2407L280.244 67.0268L279.776 67.2014ZM279.324 66.9876L278.855 67.1621L279.324 66.9876ZM143.058 2.52119L143.527 2.34665L143.174 2.18006L142.734 2.27117L143.058 2.52119ZM141.963 2.74799L141.639 2.49797L141.199 2.58909L141.336 2.80025L141.963 2.74799ZM141.502 2.07717L140.881 2.13779L140.881 2.1378L141.502 2.07717ZM141.187 1.64171L141.808 1.58109L141.492 1.14563L140.735 1.42789L141.187 1.64171ZM140.429 1.92397L140.881 2.1378L140.429 1.92397ZM133.029 4.68044L132.577 4.46662L133.029 4.68044ZM132.786 4.77124L133.238 4.98507L132.786 4.77124ZM121.92 8.81883L122.372 9.03266L121.92 8.81883ZM121.8 8.8638L121.348 8.64997L121.8 8.8638ZM121.741 8.88551L122.193 9.09934L121.741 8.88551ZM93.6204 19.3612L94.0723 19.575L93.6204 19.3612ZM92.3533 19.8332L91.9014 19.6194L92.3533 19.8332ZM92.295 19.8549L91.8431 19.6411L92.295 19.8549ZM92.1743 19.8999L92.6263 20.1137L92.1743 19.8999ZM81.9034 23.726L82.3554 23.9398L81.9034 23.726ZM73.666 26.7946L73.214 26.5808L73.666 26.7946ZM72.9152 27.0743L72.4633 26.8605L72.9152 27.0743ZM116.866 21.9514L117.254 22.1861L116.479 21.7168L116.866 21.9514ZM83.2125 23.7717L83.3525 23.508L83.0707 24.0352L83.2125 23.7717ZM83.3333 23.7872L83.4732 23.5234L83.4732 23.5234L83.3333 23.7872ZM110.357 17.6784L110.763 17.9076L109.951 17.4491L110.357 17.6784ZM94.0956 19.8511L94.0385 19.5751L94.1519 20.1271L94.0956 19.8511ZM94.1294 19.851L94.0723 19.575L94.0723 19.575L94.1294 19.851ZM121.572 9.62795L122.218 9.68456L122.218 9.68455L121.572 9.62795ZM121.577 9.61175L122.223 9.66801L120.931 9.55514L121.577 9.61175ZM114.849 15.9729L114.347 15.7798L115.35 16.166L114.849 15.9729ZM133.004 5.28371L132.364 5.31068L132.364 5.31069L133.004 5.28371ZM132.981 5.22928L133.621 5.20145L132.34 5.25624L132.981 5.22928ZM113.566 103.187L112.915 103.169L114.217 103.205L113.566 103.187ZM108.838 28.5041L109.054 28.7712L108.622 28.237L108.838 28.5041ZM73.7235 27.2274L73.9407 26.9757L73.504 27.4787L73.7235 27.2274ZM73.9007 27.2601L74.118 27.0085L74.118 27.0085L73.9007 27.2601ZM4.92052 52.786L4.46855 52.5722L4 52.7468L4.45197 52.9606L4.92052 52.786ZM5.38906 52.6115L5.84103 52.8253L5.38906 52.6115ZM73.0735 27.3976L73.2982 27.1473L72.9152 27.0743L72.6215 27.1837L73.0735 27.3976ZM142.935 3.25543L142.304 3.3008L142.304 3.3008L142.935 3.25543ZM142.589 2.69574L143.058 2.52119L141.963 2.748L142.589 2.69574ZM143.523 3.13752L143.992 2.96298L143.523 3.13752ZM278.855 67.1621L279.307 67.3759L279.776 67.2014L279.324 66.9876L278.855 67.1621ZM278.387 67.3366L278.838 67.5505L278.387 67.3366ZM198.535 97.0831L198.083 96.8693L198.535 97.0831ZM198.029 97.2716L197.424 97.352L197.783 97.7456L198.481 97.4854L198.029 97.2716ZM197.766 96.9873L197.164 97.0704L197.164 97.0704L197.766 96.9873ZM80.6082 88.1972L81.178 88.3502L81.178 88.3502L80.6082 88.1972ZM80.2815 88.4389L79.813 88.6134L80.4322 88.9064L80.8548 88.5893L80.2815 88.4389ZM141.095 2.44033L141.719 2.38353L141.719 2.38352L141.095 2.44033ZM74.8081 27.1336L74.5995 27.3868L74.5996 27.3868L74.8081 27.1336ZM74.118 27.0085L73.666 26.7946L72.9083 27.0769L73.9007 27.2601L74.118 27.0085ZM74.6425 26.8131L75.0945 27.0269L74.6425 26.8131ZM82.3554 23.9398L82.5083 23.6778L82.1608 23.6301L81.9034 23.726L82.3554 23.9398ZM133.481 4.89427L133.029 4.68044L132.772 4.77631L132.844 4.92685L133.481 4.89427ZM140.356 2.3332L140.808 2.54703L140.356 2.3332ZM140.881 2.1378L141.502 2.07716L141.187 1.64173L140.429 1.92397L140.881 2.1378ZM132.498 5.64299L131.855 5.66466L131.855 5.66467L132.498 5.64299ZM84.2433 23.6188L84.1156 23.884L84.1156 23.884L84.2433 23.6188ZM83.4732 23.5234L83.0213 23.3096L82.1472 23.6352L83.3333 23.7872L83.4732 23.5234ZM92.6263 20.1137L92.6019 19.838L92.3533 19.8332L92.1743 19.8999L92.6263 20.1137ZM122.372 9.03266L121.92 8.81883L121.741 8.88551L121.723 8.98968L122.372 9.03266ZM131.799 5.52103L131.347 5.30721L131.799 5.52103ZM132.364 5.31069L133.004 5.28371L132.786 4.77124L131.912 5.09687L132.364 5.31069ZM120.926 9.57134L121.572 9.62795L121.8 8.86379L120.474 9.35751L120.926 9.57134ZM120.777 10.0092L121.42 10.0754L121.42 10.0754L120.777 10.0092ZM95.1257 19.5648L95.2058 19.8406L95.2058 19.8406L95.1257 19.5648ZM94.0723 19.575L93.6204 19.3612L92.295 19.8549L94.1294 19.851L94.0723 19.575ZM187.934 100.65L187.311 100.708L187.311 100.708L187.934 100.65ZM91.5053 93.3525L92.1031 93.4824L92.1031 93.4823L91.5053 93.3525ZM91.2299 93.6184L90.7613 93.793L91.4514 94.1195L91.8314 93.7447L91.2299 93.6184ZM81.2332 88.8891L80.6577 88.7403L80.4372 88.9087L80.7646 89.0636L81.2332 88.8891ZM197.016 97.649L197.468 97.8628L197.779 97.7468L197.623 97.5707L197.016 97.649ZM188.141 100.955L187.516 101.009L187.815 101.459L188.593 101.169L188.141 100.955ZM175.512 105.278L174.862 105.273L174.862 105.273L175.512 105.278ZM101.433 98.0493L102.059 98.1461L102.059 98.1461L101.433 98.0493ZM101.234 98.3514L100.766 98.526L101.571 98.9072L101.864 98.4429L101.234 98.3514ZM100.706 98.1017L101.175 97.9271L100.706 98.1017ZM92.2203 94.087L91.6158 93.9637L91.4597 94.1234L91.7518 94.2616L92.2203 94.087ZM187.079 101.351L187.53 101.565L187.808 101.461L187.706 101.3L187.079 101.351ZM176.181 105.411L176.633 105.624L176.181 105.411ZM175.56 105.642L174.91 105.631L174.976 106.242L176.012 105.855L175.56 105.642ZM143.067 117.746L142.615 117.532L143.067 117.746ZM142.599 117.921L142.13 118.095L142.582 118.309L143.051 118.134L142.599 117.921ZM135.837 114.722L135.917 114.452L134.092 114.292L135.368 114.896L135.837 114.722ZM136.842 114.801L136.896 114.529L136.896 114.529L136.842 114.801ZM112.939 103.493L113.59 103.503L113.59 103.503L112.939 103.493ZM113.007 103.921L112.538 104.096L113.815 104.7L113.656 103.92L113.007 103.921ZM102.302 98.8568L101.669 98.7713L101.587 98.9146L101.834 99.0314L102.302 98.8568ZM174.294 106.113L174.746 106.327L174.949 106.252L174.945 106.132L174.294 106.113ZM134.337 114.012L133.868 114.187L134.011 114.254L134.212 114.278L134.337 114.012ZM114.507 104.631L113.864 104.651L113.896 104.738L114.039 104.805L114.507 104.631ZM72.4564 26.8631L72.1695 26.9699L73.0735 27.3976L73.3603 27.2907L72.4564 26.8631ZM72.1695 26.9699L4.01657 52.3584L4.92052 52.786L73.0735 27.3976L72.1695 26.9699ZM4.01657 52.3584L3.54803 52.5329L4.45197 52.9606L4.92052 52.786L4.01657 52.3584ZM3.53145 52.9213L3.98343 53.1351L4.92052 52.786L4.46855 52.5722L3.53145 52.9213ZM3.98343 53.1351L79.3444 88.7879L80.2815 88.4389L4.92052 52.786L3.98343 53.1351ZM79.3444 88.7879L79.9637 89.0809L80.9008 88.7318L80.2815 88.4389L79.3444 88.7879ZM81.0055 89.0568L81.4281 88.7397L80.2815 88.4389L79.8589 88.7559L81.0055 89.0568ZM81.4281 88.7397C83.9268 86.865 87.0708 85.13 90.8627 83.5888L89.922 83.1754C86.0479 84.75 82.8349 86.523 80.2815 88.4389L81.4281 88.7397ZM89.922 83.1754C85.9481 84.7908 82.6682 86.6163 80.0822 88.5915L81.2332 88.8891C83.7637 86.9562 86.9733 85.1698 90.8627 83.5888L89.922 83.1754ZM80.0822 88.5915L79.8617 88.7599L81.0127 89.0575L81.2332 88.8891L80.0822 88.5915ZM79.9687 89.0833L80.2961 89.2382L81.2332 88.8891L80.9058 88.7342L79.9687 89.0833ZM80.2961 89.2382L90.2928 93.9675L91.2299 93.6184L81.2332 88.8891L80.2961 89.2382ZM90.2928 93.9675L90.9829 94.294L91.9199 93.9449L91.2299 93.6184L90.2928 93.9675ZM92.053 94.2457L92.433 93.871L91.2299 93.6184L90.8498 93.9932L92.053 94.2457ZM92.433 93.871C94.6183 91.7159 97.7801 89.741 101.924 88.0598L100.984 87.6461C96.7255 89.3739 93.4756 91.4038 91.2299 93.6184L92.433 93.871ZM100.984 87.6461C96.5879 89.43 93.264 91.5382 91.0113 93.8404L92.2203 94.087C94.4125 91.8466 97.6465 89.7955 101.924 88.0598L100.984 87.6461ZM91.0113 93.8404L90.8551 94.0001L92.0642 94.2467L92.2203 94.087L91.0113 93.8404ZM90.9911 94.2979L91.2833 94.4361L92.2203 94.087L91.9282 93.9488L90.9911 94.2979ZM91.2833 94.4361L100.297 98.7005L101.234 98.3514L92.2203 94.087L91.2833 94.4361ZM100.297 98.7005L101.103 99.0817L102.04 98.7326L101.234 98.3514L100.297 98.7005ZM102.201 98.9986L102.494 98.5344L101.234 98.3514L100.941 98.8157L102.201 98.9986ZM102.494 98.5344C103.936 96.2472 106.728 94.1497 110.88 92.4577L109.938 92.0448C105.628 93.8014 102.73 95.9791 101.234 98.3514L102.494 98.5344ZM109.938 92.0448C105.432 93.8818 102.466 96.1829 101.035 98.6857L102.302 98.8568C103.682 96.4434 106.54 94.2269 110.88 92.4577L109.938 92.0448ZM101.035 98.6857L100.954 98.829L102.221 99.0002L102.302 98.8568L101.035 98.6857ZM101.119 99.0891L101.365 99.2059L102.302 98.8568L102.056 98.74L101.119 99.0891ZM101.365 99.2059L112.07 104.27L113.007 103.921L102.302 98.8568L101.365 99.2059ZM112.07 104.27L113.347 104.874L114.284 104.525L113.007 103.921L112.07 104.27ZM114.464 104.699L114.321 104L113.024 104.002L113.167 104.701L114.464 104.699ZM113.024 104.004C113.074 104.226 113.139 104.449 113.221 104.671L114.507 104.631C114.429 104.42 114.367 104.209 114.32 103.998L113.024 104.004ZM113.221 104.671L113.253 104.758L114.539 104.718L114.507 104.631L113.221 104.671ZM113.428 104.912L113.57 104.98L114.507 104.631L114.365 104.563L113.428 104.912ZM113.57 104.98L133.4 114.361L134.337 114.012L114.507 104.631L113.57 104.98ZM133.4 114.361L133.542 114.429L134.479 114.08L134.337 114.012L133.4 114.361ZM133.886 114.52L134.088 114.543L134.337 114.012L134.135 113.988L133.886 114.52ZM134.088 114.543C134.604 114.604 135.123 114.658 135.642 114.705L135.812 114.165C135.319 114.121 134.827 114.07 134.337 114.012L134.088 114.543ZM135.807 114.165L134.171 114.022L134.012 114.562L135.647 114.705L135.807 114.165ZM133.623 114.467L134.9 115.071L135.837 114.722L134.56 114.118L133.623 114.467ZM134.9 115.071L141.661 118.27L142.599 117.921L135.837 114.722L134.9 115.071ZM141.661 118.27L142.113 118.484L143.051 118.134L142.599 117.921L141.661 118.27ZM143.034 118.523L143.503 118.348L142.599 117.921L142.13 118.095L143.034 118.523ZM143.503 118.348L175.198 106.541L174.294 106.113L142.599 117.921L143.503 118.348ZM175.198 106.541L175.401 106.465L174.497 106.038L174.294 106.113L175.198 106.541ZM175.6 106.271L175.596 106.151L174.294 106.113L174.298 106.232L175.6 106.271ZM175.596 106.151C175.592 106.004 175.582 105.857 175.568 105.709L174.267 105.686C174.281 105.829 174.29 105.971 174.294 106.113L175.596 106.151ZM174.267 105.687L174.325 106.231L175.626 106.252L175.568 105.708L174.267 105.687ZM175.428 106.456L176.464 106.069L175.56 105.642L174.524 106.028L175.428 106.456ZM176.464 106.069L187.982 101.779L187.079 101.351L175.56 105.642L176.464 106.069ZM187.982 101.779L188.26 101.675L187.356 101.247L187.079 101.351L187.982 101.779ZM188.436 101.411L188.334 101.25L187.079 101.351L187.18 101.512L188.436 101.411ZM188.334 101.25C188.309 101.21 188.283 101.169 188.257 101.129L187.003 101.233C187.029 101.272 187.054 101.312 187.079 101.351L188.334 101.25ZM187.005 101.235L187.189 101.513L188.441 101.405L188.256 101.127L187.005 101.235ZM188.267 101.673L189.045 101.383L188.141 100.955L187.363 101.245L188.267 101.673ZM189.045 101.383L197.92 98.0767L197.016 97.649L188.141 100.955L189.045 101.383ZM197.92 98.0767L198.231 97.9606L197.327 97.5329L197.016 97.649L197.92 98.0767ZM198.386 97.6685L198.23 97.4924L197.016 97.649L197.173 97.825L198.386 97.6685ZM198.23 97.4925C198.221 97.4823 198.212 97.4722 198.203 97.4621L196.989 97.6193C196.998 97.6292 197.007 97.6391 197.016 97.649L198.23 97.4925ZM196.991 97.6211L197.178 97.826L198.388 97.6652L198.201 97.4603L196.991 97.6211ZM198.235 97.9594L198.933 97.6992L198.029 97.2716L197.331 97.5318L198.235 97.9594ZM198.933 97.6992L279.759 67.5897L278.855 67.1621L198.029 97.2716L198.933 97.6992ZM279.759 67.5897L280.228 67.4152L279.324 66.9876L278.855 67.1621L279.759 67.5897ZM280.244 67.0268L279.792 66.813L278.855 67.1621L279.307 67.3759L280.244 67.0268ZM279.792 66.813L143.527 2.34665L142.589 2.69574L278.855 67.1621L279.792 66.813ZM142.734 2.27117L141.639 2.49797L142.286 2.99801L143.382 2.77121L142.734 2.27117ZM141.336 2.80025C146 9.99558 142.164 17.6734 129.961 22.9656L130.928 23.3679C143.44 17.9418 147.37 10.0708 142.59 2.69573L141.336 2.80025ZM130.928 23.3679C143.826 17.7743 147.603 9.58298 142.123 2.01654L140.881 2.1378C146.227 9.51968 142.541 17.51 129.961 22.9656L130.928 23.3679ZM142.123 2.01654L141.808 1.58109L140.566 1.70234L140.881 2.13779L142.123 2.01654ZM140.735 1.42789L139.977 1.71015L140.881 2.1378L141.639 1.85554L140.735 1.42789ZM139.977 1.71015L132.577 4.46662L133.481 4.89427L140.881 2.1378L139.977 1.71015ZM132.577 4.46662L132.334 4.55742L133.238 4.98507L133.481 4.89427L132.577 4.46662ZM132.334 4.55742L132.32 4.56249L133.224 4.99014L133.238 4.98507L132.334 4.55742ZM132.32 4.56249L131.46 4.88304L132.364 5.31069L133.224 4.99014L132.32 4.56249ZM131.46 4.88304L121.468 8.60501L122.372 9.03266L132.364 5.31069L131.46 4.88304ZM121.468 8.60501L121.348 8.64997L122.252 9.07763L122.372 9.03266L121.468 8.60501ZM121.348 8.64997L121.289 8.67169L122.193 9.09934L122.252 9.07763L121.348 8.64997ZM121.289 8.67169L120.022 9.14369L120.926 9.57134L122.193 9.09934L121.289 8.67169ZM120.022 9.14369L93.1684 19.1474L94.0723 19.575L120.926 9.57134L120.022 9.14369ZM93.1684 19.1474L91.9014 19.6194L92.8053 20.047L94.0723 19.575L93.1684 19.1474ZM91.9014 19.6194L91.8431 19.6411L92.747 20.0687L92.8053 20.047L91.9014 19.6194ZM91.8431 19.6411L91.7224 19.6861L92.6263 20.1137L92.747 20.0687L91.8431 19.6411ZM91.7224 19.6861L82.5693 23.0958L83.4732 23.5234L92.6263 20.1137L91.7224 19.6861ZM82.5693 23.0958L81.7088 23.4163L82.6128 23.844L83.4732 23.5234L82.5693 23.0958ZM81.7088 23.4163L81.6952 23.4214L82.5991 23.849L82.6128 23.844L81.7088 23.4163ZM81.6952 23.4214L81.4515 23.5122L82.3554 23.9398L82.5991 23.849L81.6952 23.4214ZM81.4515 23.5122L73.214 26.5808L74.118 27.0085L82.3554 23.9398L81.4515 23.5122ZM73.214 26.5808L72.4633 26.8605L73.3672 27.2881L74.118 27.0085L73.214 26.5808ZM72.4633 26.8605L72.4564 26.8631L73.3603 27.2907L73.3672 27.2881L72.4633 26.8605ZM116.479 21.7168C106.767 24.415 94.62 24.966 83.3544 23.5082L83.0707 24.0352C94.6933 25.5392 107.228 24.9713 117.254 22.1861L116.479 21.7168ZM83.1933 24.0509C94.7786 25.5349 107.262 24.9618 117.254 22.1861L116.479 21.7168C106.799 24.4059 94.7027 24.9619 83.4732 23.5234L83.1933 24.0509ZM83.0726 24.0354L83.1933 24.0509L83.4732 23.5234L83.3525 23.508L83.0726 24.0354ZM109.951 17.4492C105.256 18.8679 99.702 19.5659 94.0393 19.5751L94.1519 20.1271C100.062 20.1175 105.861 19.3888 110.763 17.9076L109.951 17.4492ZM94.1865 20.1271C100.084 20.1146 105.871 19.3858 110.763 17.9076L109.951 17.4491C105.265 18.8649 99.7228 19.5631 94.0723 19.575L94.1865 20.1271ZM94.1527 20.1271L94.1865 20.1271L94.0723 19.575L94.0385 19.5751L94.1527 20.1271ZM122.218 9.68455L122.223 9.66835L120.931 9.55514L120.926 9.57134L122.218 9.68455ZM115.35 16.166C119.215 14.331 121.509 12.0697 122.218 9.68456L120.926 9.57134C120.246 11.8566 118.049 14.0223 114.347 15.7798L115.35 16.166ZM120.931 9.55549C120.257 11.8469 118.058 14.0182 114.347 15.7798L115.35 16.166C119.224 14.3267 121.519 12.0595 122.223 9.66801L120.931 9.55549ZM133.644 5.25675L133.621 5.20231L132.34 5.25624L132.364 5.31068L133.644 5.25675ZM121.529 20.803C132.015 16.8794 136.083 10.9831 133.644 5.25673L132.364 5.31069C134.728 10.8612 130.784 16.5742 120.623 20.3761L121.529 20.803ZM132.341 5.25711C134.753 10.8258 130.815 16.5625 120.623 20.3761L121.529 20.803C132.047 16.8673 136.11 10.9466 133.621 5.20145L132.341 5.25711ZM120.137 95.9662C115.206 97.803 112.809 100.43 112.915 103.169L114.217 103.205C114.116 100.608 116.387 98.1273 121.041 96.3939L120.137 95.9662ZM114.217 103.205C114.114 100.607 116.383 98.1291 121.041 96.3939L120.137 95.9662C115.201 97.8047 112.806 100.429 112.915 103.169L114.217 103.205ZM108.622 28.237C97.3993 29.5085 85.1106 29.0574 73.9429 26.9761L73.504 27.4787C84.9526 29.6123 97.5485 30.0746 109.054 28.7712L108.622 28.237ZM73.6835 27.5118C85.0828 29.6168 97.6077 30.0679 109.054 28.7712L108.622 28.237C97.457 29.5019 85.2377 29.0618 74.118 27.0085L73.6835 27.5118ZM73.5062 27.4791L73.6835 27.5118L74.118 27.0085L73.9407 26.9757L73.5062 27.4791ZM5.84103 52.8253L5.38906 52.6115L4.45197 52.9606L4.90394 53.1744L5.84103 52.8253ZM5.37249 52.9999L5.84103 52.8253L4.93709 52.3977L4.46855 52.5722L5.37249 52.9999ZM5.84103 52.8253L73.5254 27.6114L72.6215 27.1837L4.93709 52.3977L5.84103 52.8253ZM72.8487 27.6478C91.5733 31.2151 113.426 30.3467 128.764 24.6332L127.86 24.2055C112.895 29.7803 91.5717 30.6286 73.2982 27.1473L72.8487 27.6478ZM128.764 24.6332C143.159 19.2708 148.142 11.0084 143.566 3.21006L142.304 3.3008C146.77 10.9116 141.905 18.9733 127.86 24.2055L128.764 24.6332ZM143.566 3.21007C143.455 3.02091 143.339 2.83203 143.216 2.64348L141.963 2.748C142.082 2.93196 142.196 3.11625 142.304 3.3008L143.566 3.21007ZM142.121 2.87028L143.055 3.31206L143.992 2.96298L143.058 2.52119L142.121 2.87028ZM143.055 3.31206L277.935 67.1228L278.872 66.7737L143.992 2.96298L143.055 3.31206ZM277.935 67.1228L278.387 67.3366L279.324 66.9876L278.872 66.7737L277.935 67.1228ZM278.403 66.9483L277.935 67.1228L278.838 67.5505L279.307 67.3759L278.403 66.9483ZM277.935 67.1228L198.083 96.8693L198.987 97.2969L278.838 67.5505L277.935 67.1228ZM198.083 96.8693L197.577 97.0578L198.481 97.4854L198.987 97.2969L198.083 96.8693ZM198.634 97.1912C198.547 97.0954 198.458 96.9997 198.369 96.9041L197.164 97.0704C197.252 97.1642 197.338 97.258 197.424 97.352L198.634 97.1912ZM198.369 96.9041C195.13 93.4493 190.339 90.1224 184.005 87.1256L183.067 87.4747C189.286 90.4168 193.987 93.6815 197.164 97.0704L198.369 96.9041ZM184.005 87.1256C158.326 74.9772 116.783 72.758 91.214 82.283L92.1179 82.7107C117.129 73.3936 157.848 75.5434 183.067 87.4747L184.005 87.1256ZM91.214 82.283C86.675 83.9739 82.9503 85.9195 80.0384 88.0442L81.178 88.3502C84.028 86.2707 87.6737 84.3662 92.1179 82.7107L91.214 82.283ZM80.0384 88.0442C79.9271 88.1253 79.8171 88.2067 79.7082 88.2884L80.8548 88.5893C80.9614 88.5093 81.0691 88.4296 81.178 88.3502L80.0384 88.0442ZM80.7501 88.2643L80.2758 88.0399L79.3387 88.389L79.813 88.6134L80.7501 88.2643ZM80.2758 88.0399L5.84103 52.8253L4.90394 53.1744L79.3387 88.389L80.2758 88.0399ZM140.471 2.49714C145.764 10.1754 141.205 18.4696 126.956 23.7779L127.86 24.2055C142.473 18.7619 147.146 10.256 141.719 2.38353L140.471 2.49714ZM126.956 23.7779C112.706 29.0861 92.5472 29.9999 75.0166 26.8803L74.5996 27.3868C92.5737 30.5854 113.247 29.6492 127.86 24.2055L126.956 23.7779ZM75.0166 26.8803C74.7891 26.8398 74.5619 26.7986 74.3352 26.7568L73.9007 27.2601C74.1332 27.3031 74.3662 27.3453 74.5995 27.3868L75.0166 26.8803ZM74.57 27.2223L75.0945 27.0269L74.1906 26.5992L73.666 26.7946L74.57 27.2223ZM75.0945 27.0269L82.8074 24.1537L81.9034 23.726L74.1906 26.5992L75.0945 27.0269ZM82.2025 24.2019C95.9207 26.0838 110.999 25.108 121.918 21.0403L121.014 20.6127C110.428 24.5561 95.8114 25.5028 82.5083 23.6778L82.2025 24.2019ZM121.918 21.0403C132.838 16.9726 136.939 10.8036 134.119 4.86168L132.844 4.92685C135.578 10.689 131.6 16.6692 121.014 20.6127L121.918 21.0403ZM133.933 5.10809L140.808 2.54703L139.904 2.11938L133.029 4.68044L133.933 5.10809ZM140.808 2.54703L141.333 2.35162L140.429 1.92397L139.904 2.11938L140.808 2.54703ZM140.26 2.19843C140.332 2.29788 140.402 2.39746 140.471 2.49714L141.719 2.38352C141.648 2.2813 141.576 2.17918 141.502 2.07716L140.26 2.19843ZM121.014 20.6127C131.177 16.8269 135.248 11.1642 133.14 5.62132L131.855 5.66467C133.897 11.0346 129.953 16.5184 120.11 20.185L121.014 20.6127ZM84.1156 23.884C96.9746 25.4217 110.852 24.3984 121.014 20.6127L120.11 20.185C110.268 23.8516 96.8287 24.8432 84.3709 23.3535L84.1156 23.884ZM83.3333 23.7872C83.5936 23.8205 83.8544 23.8528 84.1156 23.884L84.3709 23.3535C84.1179 23.3233 83.8654 23.292 83.6132 23.2597L83.3333 23.7872ZM83.5859 23.0992L83.0213 23.3096L83.9252 23.7372L84.4899 23.5269L83.5859 23.0992ZM92.1743 19.8999L83.5859 23.0992L84.4899 23.5269L93.0783 20.3275L92.1743 19.8999ZM112.524 16.9503C106.929 19.0344 99.7998 19.9761 92.6019 19.838L92.6507 20.3894C100.156 20.5335 107.594 19.5511 113.428 17.3779L112.524 16.9503ZM121.723 8.98968C121.194 12.0064 118.118 14.8662 112.524 16.9503L113.428 17.3779C119.262 15.2047 122.47 12.2214 123.022 9.07564L121.723 8.98968ZM131.347 5.30721L121.92 8.81883L122.824 9.24648L132.251 5.73486L131.347 5.30721ZM131.912 5.09687L131.347 5.30721L132.251 5.73486L132.816 5.52452L131.912 5.09687ZM133.14 5.62132C133.097 5.50872 133.052 5.39618 133.004 5.28371L131.723 5.33767C131.77 5.44662 131.814 5.55562 131.855 5.66466L133.14 5.62132ZM95.283 19.5062L120.62 10.0678L119.716 9.64014L94.3791 19.0786L95.283 19.5062ZM120.62 10.0678L121.378 9.78516L120.474 9.35751L119.716 9.64014L120.62 10.0678ZM120.28 9.51472C120.238 9.658 120.189 9.80079 120.134 9.94302L121.42 10.0754C121.477 9.92678 121.528 9.77762 121.572 9.62795L120.28 9.51472ZM120.134 9.94302C119.171 12.4416 116.328 14.7688 111.62 16.5226L112.524 16.9503C117.442 15.1183 120.414 12.686 121.42 10.0754L120.134 9.94302ZM111.62 16.5226C106.912 18.2764 101.07 19.1848 95.0456 19.289L95.2058 19.8406C101.5 19.7317 107.606 18.7822 112.524 16.9503L111.62 16.5226ZM95.0456 19.289C94.7027 19.295 94.3592 19.2983 94.0153 19.299L94.1294 19.851C94.4887 19.8503 94.8475 19.8468 95.2058 19.8406L95.0456 19.289ZM94.5243 19.7889L95.283 19.5062L94.3791 19.0786L93.6204 19.3612L94.5243 19.7889ZM188.557 100.592C186.121 97.1068 181.75 93.7174 175.456 90.74L174.519 91.089C180.667 93.9976 184.934 97.3068 187.311 100.708L188.557 100.592ZM175.456 90.74C155.112 81.1155 122.174 79.3479 101.885 86.906L102.789 87.3337C122.52 79.9835 154.634 81.6817 174.519 91.089L175.456 90.74ZM101.885 86.906C97.0725 88.6989 93.4145 90.8523 90.9074 93.2227L92.1031 93.4823C94.5434 91.175 98.1035 89.0792 102.789 87.3337L101.885 86.906ZM90.9074 93.2227C90.8127 93.3122 90.7197 93.4021 90.6283 93.4922L91.8314 93.7447C91.9204 93.657 92.011 93.5695 92.1031 93.4824L90.9074 93.2227ZM91.6984 93.4439L91.206 93.2109L90.2689 93.56L90.7613 93.793L91.6984 93.4439ZM91.206 93.2109L81.7017 88.7145L80.7646 89.0636L90.2689 93.56L91.206 93.2109ZM81.8087 89.0379C84.6687 86.8533 88.4058 84.8579 93.0218 83.1383L92.1179 82.7107C87.4011 84.4678 83.5811 86.5073 80.6577 88.7403L81.8087 89.0379ZM93.0218 83.1383C117.475 74.0291 157.37 76.1099 182.13 87.8238L183.067 87.4747C157.848 75.5435 117.129 73.3936 92.1179 82.7107L93.0218 83.1383ZM182.13 87.8238C188.535 90.8537 193.295 94.2296 196.409 97.7273L197.623 97.5707C194.447 94.0035 189.593 90.562 183.067 87.4747L182.13 87.8238ZM196.564 97.4352L188.219 100.544L189.123 100.972L197.468 97.8628L196.564 97.4352ZM188.219 100.544L187.689 100.741L188.593 101.169L189.123 100.972L188.219 100.544ZM188.767 100.901C188.699 100.798 188.629 100.695 188.557 100.592L187.311 100.708C187.381 100.808 187.449 100.909 187.516 101.009L188.767 100.901ZM176.161 105.282C175.547 101.44 171.776 97.5084 164.885 94.2482L163.947 94.5973C170.622 97.7551 174.269 101.56 174.862 105.273L176.161 105.282ZM164.885 94.2482C149.876 87.1477 125.543 85.8316 110.533 91.423L111.437 91.8506C125.888 86.4673 149.398 87.7139 163.947 94.5973L164.885 94.2482ZM110.533 91.423C105.75 93.2049 102.511 95.4673 100.807 97.9524L102.059 98.1461C103.703 95.7491 106.826 93.5686 111.437 91.8506L110.533 91.423ZM100.807 97.9524C100.737 98.0545 100.669 98.1571 100.604 98.2599L101.864 98.4429C101.927 98.3436 101.992 98.2447 102.059 98.1461L100.807 97.9524ZM101.703 98.1769L101.175 97.9271L100.238 98.2762L100.766 98.526L101.703 98.1769ZM101.175 97.9271L92.6889 93.9125L91.7518 94.2616L100.238 98.2762L101.175 97.9271ZM92.8248 94.2103C95.2034 91.7795 98.8251 89.5748 103.693 87.7613L102.789 87.3337C97.785 89.1978 94.061 91.4648 91.6158 93.9637L92.8248 94.2103ZM103.693 87.7613C122.866 80.619 154.157 82.2481 173.582 91.4381L174.519 91.089C154.634 81.6818 122.52 79.9835 102.789 87.3337L103.693 87.7613ZM173.582 91.4381C179.935 94.4439 184.225 97.8835 186.451 101.401L187.706 101.3C185.424 97.6928 181.026 94.1675 174.519 91.089L173.582 91.4381ZM186.627 101.137L175.729 105.197L176.633 105.624L187.53 101.565L186.627 101.137ZM175.729 105.197L175.108 105.428L176.012 105.855L176.633 105.624L175.729 105.197ZM176.211 105.652C176.198 105.529 176.181 105.405 176.161 105.282L174.862 105.273C174.881 105.393 174.897 105.512 174.91 105.631L176.211 105.652ZM142.615 117.532L142.147 117.707L143.051 118.134L143.519 117.96L142.615 117.532ZM143.067 117.746L142.615 117.532L141.678 117.881L142.13 118.095L143.067 117.746ZM142.615 117.532L137.011 114.881L136.074 115.23L141.678 117.881L142.615 117.532ZM137.011 114.881L136.306 114.547L135.368 114.896L136.074 115.23L137.011 114.881ZM135.757 114.992C136.1 115.022 136.444 115.049 136.788 115.073L136.896 114.529C136.569 114.506 136.243 114.48 135.917 114.452L135.757 114.992ZM136.788 115.073C143.679 115.557 150.677 114.875 155.951 112.91L155.047 112.482C150.062 114.34 143.44 114.989 136.896 114.529L136.788 115.073ZM155.951 112.91C165.959 109.182 165.782 102.332 155.828 97.6221L154.891 97.9712C164.386 102.464 164.496 108.962 155.047 112.482L155.951 112.91ZM155.828 97.6221C145.873 92.9127 129.692 92.0244 119.685 95.7524L120.589 96.1801C130.038 92.6601 145.395 93.4788 154.891 97.9712L155.828 97.6221ZM119.685 95.7524C114.41 97.7172 111.963 100.553 112.289 103.483L113.59 103.503C113.28 100.72 115.603 98.0373 120.589 96.1801L119.685 95.7524ZM112.289 103.483C112.305 103.629 112.328 103.776 112.358 103.922L113.656 103.92C113.627 103.781 113.605 103.642 113.59 103.503L112.289 103.483ZM113.476 103.747L112.77 103.413L111.833 103.762L112.538 104.096L113.476 103.747ZM112.77 103.413L102.771 98.6823L101.834 99.0314L111.833 103.762L112.77 103.413ZM102.936 98.9424C104.392 96.3949 107.525 94.0722 112.341 92.2783L111.437 91.8506C106.434 93.7143 103.18 96.1275 101.669 98.7713L102.936 98.9424ZM112.341 92.2783C126.234 87.1028 148.92 88.2803 163.01 94.9464L163.947 94.5973C149.398 87.714 125.888 86.4672 111.437 91.8506L112.341 92.2783ZM163.01 94.9464C169.974 98.2408 173.519 102.253 173.643 106.094L174.945 106.132C174.817 102.154 171.144 98.0021 163.947 94.5973L163.01 94.9464ZM173.842 105.899L142.615 117.532L143.519 117.96L174.746 106.327L173.842 105.899ZM134.805 113.838L114.976 104.456L114.039 104.805L133.868 114.187L134.805 113.838ZM154.143 112.055C148.809 114.042 141.453 114.567 134.461 113.746L134.212 114.278C141.587 115.143 149.383 114.592 155.047 112.482L154.143 112.055ZM153.954 98.3203C162.99 102.595 163.035 108.742 154.143 112.055L155.047 112.482C164.497 108.962 164.386 102.463 154.891 97.9712L153.954 98.3203ZM121.493 96.6077C130.384 93.2955 144.917 94.0453 153.954 98.3203L154.891 97.9712C145.395 93.4789 130.038 92.66 120.589 96.1801L121.493 96.6077ZM115.15 104.611C114.041 101.599 116.158 98.5949 121.493 96.6077L120.589 96.1801C114.924 98.2901 112.694 101.474 113.864 104.651L115.15 104.611ZM144.33 102.335C147.368 103.773 147.423 105.865 144.366 107.003L145.27 107.431C148.886 106.084 148.763 103.64 145.267 101.986L144.33 102.335ZM133.294 101.765C136.35 100.626 141.291 100.898 144.33 102.335L145.267 101.986C141.771 100.332 136.006 99.9902 132.39 101.338L133.294 101.765ZM133.329 106.433C130.291 104.996 130.237 102.904 133.294 101.765L132.39 101.338C128.773 102.685 128.897 105.128 132.392 106.782L133.329 106.433ZM144.366 107.003C141.309 108.142 136.368 107.871 133.329 106.433L132.392 106.782C135.888 108.436 141.653 108.778 145.27 107.431L144.366 107.003ZM144.366 107.003C147.423 105.864 147.367 103.772 144.33 102.335L143.393 102.684C145.971 103.904 145.961 105.644 143.462 106.576L144.366 107.003ZM133.329 106.433C136.367 107.87 141.308 108.142 144.366 107.003L143.462 106.576C140.962 107.507 136.845 107.304 134.267 106.084L133.329 106.433ZM133.294 101.765C130.236 102.904 130.292 104.996 133.329 106.433L134.267 106.084C131.688 104.864 131.698 103.124 134.197 102.193L133.294 101.765ZM144.33 102.335C141.292 100.898 136.351 100.626 133.294 101.765L134.197 102.193C136.697 101.262 140.814 101.465 143.393 102.684L144.33 102.335ZM150.353 109.836C156.749 107.454 156.602 103.094 150.298 100.112L149.361 100.461C155.207 103.227 155.286 107.234 149.45 109.409L150.353 109.836ZM127.361 108.657C133.665 111.639 143.958 112.219 150.353 109.836L149.45 109.409C143.613 111.583 134.144 111.073 128.298 108.308L127.361 108.657ZM127.305 98.9323C120.91 101.315 121.057 105.674 127.361 108.657L128.298 108.308C122.452 105.542 122.373 101.534 128.209 99.3599L127.305 98.9323ZM150.298 100.112C143.994 97.1295 133.701 96.5499 127.305 98.9323L128.209 99.3599C134.046 97.1858 143.515 97.6953 149.361 100.461L150.298 100.112ZM148.424 100.81C153.81 103.358 153.824 107.014 148.546 108.981L149.45 109.409C155.286 107.234 155.206 103.226 149.361 100.461L148.424 100.81ZM129.113 99.7876C134.392 97.8212 143.038 98.2619 148.424 100.81L149.361 100.461C143.516 97.6956 134.046 97.1856 128.209 99.3599L129.113 99.7876ZM129.235 107.958C123.849 105.41 123.835 101.754 129.113 99.7876L128.209 99.3599C122.373 101.534 122.452 105.542 128.298 108.308L129.235 107.958ZM148.546 108.981C143.267 110.947 134.621 110.507 129.235 107.958L128.298 108.308C134.143 111.073 143.613 111.583 149.45 109.409L148.546 108.981Z" fill="#E22E00" fill-opacity="0.77" mask="url(#path-2-inside-1_37_29)"/>
</g>
<g filter="url(#filter1_d_37_29)">
<path d="M161.273 41.8079C163.134 42.688 163.118 43.9383 161.329 44.6049C159.54 45.2714 156.581 45.1291 154.72 44.249C152.86 43.3689 152.875 42.1186 154.665 41.452C156.454 40.7854 159.413 40.9278 161.273 41.8079Z" stroke="#E22E00" stroke-opacity="0.77" shape-rendering="crispEdges"/>
</g>
<g filter="url(#filter2_d_37_29)">
<path d="M165.019 40.4128C168.969 42.2816 168.971 44.9581 165.113 46.3952C161.256 47.8322 154.926 47.513 150.975 45.6442C147.025 43.7754 147.023 41.0989 150.881 39.6618C154.738 38.2247 161.068 38.544 165.019 40.4128Z" stroke="#E22E00" stroke-opacity="0.77" shape-rendering="crispEdges"/>
</g>
<g filter="url(#filter3_d_37_29)">
<path d="M175.875 36.0484C186.304 40.9823 186.361 48.0798 176.091 51.9055C165.822 55.7311 149.042 54.8635 138.613 49.9296C128.184 44.9957 128.127 37.8982 138.397 34.0725C148.666 30.2469 165.446 31.1145 175.875 36.0484Z" stroke="#E22E00" stroke-opacity="0.77" shape-rendering="crispEdges"/>
</g>
<g filter="url(#filter4_d_37_29)">
<path d="M183.744 33.4371C198.144 40.2496 198.233 50.0568 184.034 55.3464C169.835 60.636 146.65 59.4322 132.25 52.6198C117.85 45.8073 117.76 36.0001 131.96 30.7105C146.159 25.4209 169.344 26.6247 183.744 33.4371Z" stroke="#E22E00" stroke-opacity="0.77" shape-rendering="crispEdges"/>
</g>
<path d="M190.107 30.7469C208.477 39.4379 208.6 51.9548 190.471 58.7084C172.342 65.4619 142.752 63.922 124.381 55.231C106.011 46.5399 105.888 34.023 124.017 27.2695C142.146 20.5159 171.736 22.0558 190.107 30.7469Z" stroke="#E22E00" stroke-opacity="0.77"/>
<g filter="url(#filter5_d_37_29)">
<path d="M169.134 38.5596C175.801 41.7137 175.826 46.2442 169.28 48.683C162.733 51.1217 152.021 50.5725 145.354 47.4183C138.687 44.2641 138.662 39.7336 145.208 37.2949C151.755 34.8562 162.467 35.4054 169.134 38.5596Z" stroke="#E22E00" stroke-opacity="0.77" shape-rendering="crispEdges"/>
</g>
<g filter="url(#filter6_d_37_29)">
<path d="M81.5932 52.2025C82.7075 52.7297 82.6859 53.471 81.6349 53.8625C80.5839 54.254 78.8281 54.1749 77.7138 53.6477C76.5995 53.1205 76.621 52.3792 77.6721 51.9877C78.7231 51.5962 80.4789 51.6754 81.5932 52.2025Z" stroke="#E22E00" stroke-opacity="0.77" shape-rendering="crispEdges"/>
</g>
<g filter="url(#filter7_d_37_29)">
<path d="M84.0015 51.3053C86.4597 52.4683 86.4494 54.1267 84.0683 55.0137C81.6872 55.9007 77.7637 55.7077 75.3055 54.5448C72.8472 53.3818 72.8576 51.7234 75.2386 50.8364C77.6197 49.9494 81.5432 50.1424 84.0015 51.3053Z" stroke="#E22E00" stroke-opacity="0.77" shape-rendering="crispEdges"/>
</g>
<g filter="url(#filter8_d_37_29)">
<path d="M90.983 48.4989C97.6074 51.6329 97.6319 56.1342 91.1277 58.5572C84.6235 60.9801 73.9801 60.4345 67.3557 57.3006C60.7313 54.1666 60.7068 49.6653 67.211 47.2423C73.7152 44.8194 84.3586 45.3649 90.983 48.4989Z" stroke="#E22E00" stroke-opacity="0.77" shape-rendering="crispEdges"/>
</g>
<g filter="url(#filter9_d_37_29)">
<path d="M96.0428 46.8197C105.221 51.1616 105.267 57.4054 96.2353 60.7698C87.2039 64.1342 72.442 63.3724 63.2641 59.0304C54.0863 54.6885 54.0403 48.4447 63.0717 45.0803C72.103 41.7159 86.865 42.4777 96.0428 46.8197Z" stroke="#E22E00" stroke-opacity="0.77" shape-rendering="crispEdges"/>
</g>
<path d="M100.134 45.0896C111.866 50.6396 111.933 58.6258 100.375 62.9316C88.8161 67.2374 69.9356 66.2595 58.2042 60.7095C46.4729 55.1595 46.4056 47.1732 57.964 42.8675C69.5225 38.5617 88.403 39.5396 100.134 45.0896Z" stroke="#E22E00" stroke-opacity="0.77"/>
<g filter="url(#filter10_d_37_29)">
<path d="M86.648 50.1136C90.8533 52.1031 90.8576 54.9537 86.7475 56.4848C82.6373 58.0159 75.8958 57.6751 71.6905 55.6856C67.4852 53.6961 67.4809 50.8455 71.591 49.3144C75.7012 47.7833 82.4427 48.1241 86.648 50.1136Z" stroke="#E22E00" stroke-opacity="0.77" shape-rendering="crispEdges"/>
</g>
<defs>
<filter id="filter0_d_37_29" x="0" y="1.64172" width="283.776" height="124.667" filterUnits="userSpaceOnUse" color-interpolation-filters="sRGB">
<feFlood flood-opacity="0" result="BackgroundImageFix"/>
<feColorMatrix in="SourceAlpha" type="matrix" values="0 0 0 0 0 0 0 0 0 0 0 0 0 0 0 0 0 0 127 0" result="hardAlpha"/>
<feOffset dy="4"/>
<feGaussianBlur stdDeviation="2"/>
<feComposite in2="hardAlpha" operator="out"/>
<feColorMatrix type="matrix" values="0 0 0 0 0 0 0 0 0 0 0 0 0 0 0 0 0 0 0.25 0"/>
<feBlend mode="normal" in2="BackgroundImageFix" result="effect1_dropShadow_37_29"/>
<feBlend mode="normal" in="SourceGraphic" in2="effect1_dropShadow_37_29" result="shape"/>
</filter>
<filter id="filter1_d_37_29" x="151.673" y="40.7587" width="12.6481" height="9.53955" filterUnits="userSpaceOnUse" color-interpolation-filters="sRGB">
<feFlood flood-opacity="0" result="BackgroundImageFix"/>
<feColorMatrix in="SourceAlpha" type="matrix" values="0 0 0 0 0 0 0 0 0 0 0 0 0 0 0 0 0 0 127 0" result="hardAlpha"/>
<feOffset dy="4"/>
<feGaussianBlur stdDeviation="0.5"/>
<feComposite in2="hardAlpha" operator="out"/>
<feColorMatrix type="matrix" values="0 0 0 0 0 0 0 0 0 0 0 0 0 0 0 0 0 0 0.25 0"/>
<feBlend mode="normal" in2="BackgroundImageFix" result="effect1_dropShadow_37_29"/>
<feBlend mode="normal" in="SourceGraphic" in2="effect1_dropShadow_37_29" result="shape"/>
</filter>
<filter id="filter2_d_37_29" x="145.349" y="38.489" width="25.2961" height="15.079" filterUnits="userSpaceOnUse" color-interpolation-filters="sRGB">
<feFlood flood-opacity="0" result="BackgroundImageFix"/>
<feColorMatrix in="SourceAlpha" type="matrix" values="0 0 0 0 0 0 0 0 0 0 0 0 0 0 0 0 0 0 127 0" result="hardAlpha"/>
<feOffset dy="4"/>
<feGaussianBlur stdDeviation="1"/>
<feComposite in2="hardAlpha" operator="out"/>
<feColorMatrix type="matrix" values="0 0 0 0 0 0 0 0 0 0 0 0 0 0 0 0 0 0 0.25 0"/>
<feBlend mode="normal" in2="BackgroundImageFix" result="effect1_dropShadow_37_29"/>
<feBlend mode="normal" in="SourceGraphic" in2="effect1_dropShadow_37_29" result="shape"/>
</filter>
<filter id="filter3_d_37_29" x="127.091" y="31.4132" width="60.3051" height="30.1516" filterUnits="userSpaceOnUse" color-interpolation-filters="sRGB">
<feFlood flood-opacity="0" result="BackgroundImageFix"/>
<feColorMatrix in="SourceAlpha" type="matrix" values="0 0 0 0 0 0 0 0 0 0 0 0 0 0 0 0 0 0 127 0" result="hardAlpha"/>
<feOffset dy="4"/>
<feGaussianBlur stdDeviation="1.5"/>
<feComposite in2="hardAlpha" operator="out"/>
<feColorMatrix type="matrix" values="0 0 0 0 0 0 0 0 0 0 0 0 0 0 0 0 0 0 0.25 0"/>
<feBlend mode="normal" in2="BackgroundImageFix" result="effect1_dropShadow_37_29"/>
<feBlend mode="normal" in="SourceGraphic" in2="effect1_dropShadow_37_29" result="shape"/>
</filter>
<filter id="filter4_d_37_29" x="117.729" y="27.1401" width="80.5365" height="38.7767" filterUnits="userSpaceOnUse" color-interpolation-filters="sRGB">
<feFlood flood-opacity="0" result="BackgroundImageFix"/>
<feColorMatrix in="SourceAlpha" type="matrix" values="0 0 0 0 0 0 0 0 0 0 0 0 0 0 0 0 0 0 127 0" result="hardAlpha"/>
<feOffset dy="4"/>
<feGaussianBlur stdDeviation="1.5"/>
<feComposite in2="hardAlpha" operator="out"/>
<feColorMatrix type="matrix" values="0 0 0 0 0 0 0 0 0 0 0 0 0 0 0 0 0 0 0.25 0"/>
<feBlend mode="normal" in2="BackgroundImageFix" result="effect1_dropShadow_37_29"/>
<feBlend mode="normal" in="SourceGraphic" in2="effect1_dropShadow_37_29" result="shape"/>
</filter>
<filter id="filter5_d_37_29" x="137.675" y="35.4987" width="39.1386" height="20.9805" filterUnits="userSpaceOnUse" color-interpolation-filters="sRGB">
<feFlood flood-opacity="0" result="BackgroundImageFix"/>
<feColorMatrix in="SourceAlpha" type="matrix" values="0 0 0 0 0 0 0 0 0 0 0 0 0 0 0 0 0 0 127 0" result="hardAlpha"/>
<feOffset dy="4"/>
<feGaussianBlur stdDeviation="1"/>
<feComposite in2="hardAlpha" operator="out"/>
<feColorMatrix type="matrix" values="0 0 0 0 0 0 0 0 0 0 0 0 0 0 0 0 0 0 0.25 0"/>
<feBlend mode="normal" in2="BackgroundImageFix" result="effect1_dropShadow_37_29"/>
<feBlend mode="normal" in="SourceGraphic" in2="effect1_dropShadow_37_29" result="shape"/>
</filter>
<filter id="filter6_d_37_29" x="75.2299" y="51.4655" width="8.84724" height="7.91919" filterUnits="userSpaceOnUse" color-interpolation-filters="sRGB">
<feFlood flood-opacity="0" result="BackgroundImageFix"/>
<feColorMatrix in="SourceAlpha" type="matrix" values="0 0 0 0 0 0 0 0 0 0 0 0 0 0 0 0 0 0 127 0" result="hardAlpha"/>
<feOffset dy="4"/>
<feGaussianBlur stdDeviation="0.5"/>
<feComposite in2="hardAlpha" operator="out"/>
<feColorMatrix type="matrix" values="0 0 0 0 0 0 0 0 0 0 0 0 0 0 0 0 0 0 0.25 0"/>
<feBlend mode="normal" in2="BackgroundImageFix" result="effect1_dropShadow_37_29"/>
<feBlend mode="normal" in="SourceGraphic" in2="effect1_dropShadow_37_29" result="shape"/>
</filter>
<filter id="filter7_d_37_29" x="70.8062" y="50.0059" width="17.6945" height="11.8383" filterUnits="userSpaceOnUse" color-interpolation-filters="sRGB">
<feFlood flood-opacity="0" result="BackgroundImageFix"/>
<feColorMatrix in="SourceAlpha" type="matrix" values="0 0 0 0 0 0 0 0 0 0 0 0 0 0 0 0 0 0 127 0" result="hardAlpha"/>
<feOffset dy="4"/>
<feGaussianBlur stdDeviation="1"/>
<feComposite in2="hardAlpha" operator="out"/>
<feColorMatrix type="matrix" values="0 0 0 0 0 0 0 0 0 0 0 0 0 0 0 0 0 0 0.25 0"/>
<feBlend mode="normal" in2="BackgroundImageFix" result="effect1_dropShadow_37_29"/>
<feBlend mode="normal" in="SourceGraphic" in2="effect1_dropShadow_37_29" result="shape"/>
</filter>
<filter id="filter8_d_37_29" x="58.7089" y="45.4559" width="40.9209" height="21.8876" filterUnits="userSpaceOnUse" color-interpolation-filters="sRGB">
<feFlood flood-opacity="0" result="BackgroundImageFix"/>
<feColorMatrix in="SourceAlpha" type="matrix" values="0 0 0 0 0 0 0 0 0 0 0 0 0 0 0 0 0 0 127 0" result="hardAlpha"/>
<feOffset dy="4"/>
<feGaussianBlur stdDeviation="1.5"/>
<feComposite in2="hardAlpha" operator="out"/>
<feColorMatrix type="matrix" values="0 0 0 0 0 0 0 0 0 0 0 0 0 0 0 0 0 0 0.25 0"/>
<feBlend mode="normal" in2="BackgroundImageFix" result="effect1_dropShadow_37_29"/>
<feBlend mode="normal" in="SourceGraphic" in2="effect1_dropShadow_37_29" result="shape"/>
</filter>
<filter id="filter9_d_37_29" x="52.6881" y="42.708" width="53.9307" height="27.4341" filterUnits="userSpaceOnUse" color-interpolation-filters="sRGB">
<feFlood flood-opacity="0" result="BackgroundImageFix"/>
<feColorMatrix in="SourceAlpha" type="matrix" values="0 0 0 0 0 0 0 0 0 0 0 0 0 0 0 0 0 0 127 0" result="hardAlpha"/>
<feOffset dy="4"/>
<feGaussianBlur stdDeviation="1.5"/>
<feComposite in2="hardAlpha" operator="out"/>
<feColorMatrix type="matrix" values="0 0 0 0 0 0 0 0 0 0 0 0 0 0 0 0 0 0 0.25 0"/>
<feBlend mode="normal" in2="BackgroundImageFix" result="effect1_dropShadow_37_29"/>
<feBlend mode="normal" in="SourceGraphic" in2="effect1_dropShadow_37_29" result="shape"/>
</filter>
<filter id="filter10_d_37_29" x="65.8713" y="48.083" width="26.5959" height="15.6332" filterUnits="userSpaceOnUse" color-interpolation-filters="sRGB">
<feFlood flood-opacity="0" result="BackgroundImageFix"/>
<feColorMatrix in="SourceAlpha" type="matrix" values="0 0 0 0 0 0 0 0 0 0 0 0 0 0 0 0 0 0 127 0" result="hardAlpha"/>
<feOffset dy="4"/>
<feGaussianBlur stdDeviation="1"/>
<feComposite in2="hardAlpha" operator="out"/>
<feColorMatrix type="matrix" values="0 0 0 0 0 0 0 0 0 0 0 0 0 0 0 0 0 0 0.25 0"/>
<feBlend mode="normal" in2="BackgroundImageFix" result="effect1_dropShadow_37_29"/>
<feBlend mode="normal" in="SourceGraphic" in2="effect1_dropShadow_37_29" result="shape"/>
</filter>
</defs>
</svg>
