<svg width="278" height="110" viewBox="0 0 278 110" fill="none" xmlns="http://www.w3.org/2000/svg">
<g filter="url(#filter0_d_37_5)">
<path d="M115 91.6819C137.255 85.0052 142.448 89.4563 159.882 86.8598L180.654 79.0703C186.96 76.8448 190.298 71.4895 201.797 66.4588C207.402 64.0068 218.86 63.1204 226.649 60.5239L238.89 56.8146" stroke="#2985FF"/>
</g>
<g filter="url(#filter1_d_37_5)">
<path d="M135.03 98.7296C162.108 91.311 181.025 100.213 191.04 99.1005C191.04 99.1005 244.701 77.8339 266.709 70.1681" stroke="#2985FF"/>
</g>
<g filter="url(#filter2_d_37_5)">
<path d="M104.243 92.4237C130.208 83.5215 139.852 88.3435 151.722 83.8924L163.22 78.6994C171.01 73.5064 179.541 57.7823 192.524 54.96C201.055 53.1053 221.085 58.6693 227.02 54.96L230.358 52.7344" stroke="#2985FF"/>
</g>
<g filter="url(#filter3_d_37_5)">
<path d="M123.531 92.4238C138.739 84.6343 163.22 96.133 176.574 87.6017L231.1 67.2007C231.1 67.2007 245.443 62.6259 247.421 61.2658" stroke="#2985FF"/>
</g>
<g filter="url(#filter4_d_37_5)">
<path d="M92.7441 94.2784C115 82.7797 122.418 87.2308 135.03 83.5215C135.03 83.5215 144.674 79.8122 150.609 76.4739C156.544 73.1355 166.93 49.7671 182.88 46.0578C195.353 43.1569 214.038 51.9926 220.714 47.9125" stroke="#2985FF"/>
</g>
<g filter="url(#filter5_d_37_5)">
<path d="M82.729 95.3912C96.0824 89.0854 100.904 86.8598 116.854 82.7796C120.264 81.9075 140.965 73.1579 143.932 70.9324C146.9 68.7068 157.996 45.219 175.832 40.1229C183.621 37.8973 204.393 46.0578 211.441 43.8322" stroke="#2985FF"/>
</g>
<g filter="url(#filter6_d_37_5)">
<path d="M73.8267 93.9075L129.213 68.6512C141.083 64.571 142.448 47.4439 169.155 39.0102C176.945 36.5504 199.2 41.2358 201.797 39.3811" stroke="#2985FF"/>
</g>
<g filter="url(#filter7_d_37_5)">
<path d="M64.1826 89.4563L90.1476 75.732C92.6204 74.2482 98.0854 71.0583 100.163 70.168C102.759 69.0553 108.694 67.9425 109.807 67.5715C110.92 67.2006 124.356 62.1799 126.869 61.2658C135.03 58.2983 149.182 40.8853 163.22 38.6392C172.494 37.1555 183.251 39.3811 192.895 35.3008" stroke="#2985FF"/>
</g>
<g filter="url(#filter8_d_37_5)">
<path d="M129.466 94.2784C150.609 86.118 167.301 96.8749 179.912 94.2784C188.235 92.5649 235.304 73.7537 257.436 65.346" stroke="#2985FF"/>
</g>
<g filter="url(#filter9_d_37_5)">
<path d="M53.4257 84.6343C59.9788 81.5432 73.3816 74.4708 74.5686 73.8773C76.0523 73.1355 84.2127 64.6041 90.8894 62.3786C99.7917 59.4111 106.468 62.0076 109.436 60.5239C112.403 59.0402 125.757 54.2182 128.353 52.3635C130.95 50.5089 145.045 41.6066 149.496 40.1229C159.14 36.9082 165.817 39.752 173.977 35.6718C180.506 32.4076 183.251 30.726 183.621 30.4788" stroke="#2985FF"/>
</g>
<g filter="url(#filter10_d_37_5)">
<path d="M23.3805 69.9788C30.9227 66.6404 43.7816 60.7056 43.7816 60.7056C50.8292 58.1091 58.2478 50.3196 64.9245 48.4649C71.6012 46.6103 78.2779 47.3522 83.0999 45.8684L90.8894 41.7882C101.646 38.0789 102.747 26.6843 117.225 21.7581C129.218 17.6779 143.19 26.4318 150.98 21.7581C151.722 21.313 157.656 18.6091 157.656 18.6091" stroke="#2985FF"/>
</g>
<g filter="url(#filter11_d_37_5)">
<path d="M148.012 13.9686C146.158 16.1942 123.902 8.04145 111.661 11.1905C99.4208 14.3396 92.7441 26.3985 84.9546 34.7406C83.1291 36.6956 80.1325 37.708 77.1651 39.1917L67.8919 43.2719L13.7364 65.7169" stroke="#2985FF"/>
</g>
<g filter="url(#filter12_d_37_5)">
<path d="M18.5585 53.8472C41.4324 65.5933 88.4194 87.81 92.3731 89.0854C103.872 92.7947 123.386 86.7029 132.433 89.4563C140.965 92.0528 149.125 98.7295 150.98 99.4714" stroke="#2985FF"/>
</g>
<g filter="url(#filter13_d_37_5)">
<path d="M36.363 47.5414L47.1199 52.7344C53.4257 55.7019 61.2261 57.0056 67.521 60.153C72.714 62.7495 77.9069 68.6843 94.2278 74.9901C96.0846 75.7075 106.963 81.0486 113.145 83.8924C130.579 88.7145 140.253 85.3903 151.351 90.5691C156.915 93.1656 164.333 98.3586 164.333 98.3586" stroke="#2985FF"/>
</g>
<g filter="url(#filter14_d_37_5)">
<path d="M67.521 35.3008L133.175 66.4588L143.561 70.539L152.093 75.5406L205.506 100.955" stroke="#2985FF"/>
</g>
<g filter="url(#filter15_d_37_5)">
<path d="M84.5836 16.3835C91.7549 23.802 107.359 39.3068 112.403 41.9775C117.448 44.6482 125.386 48.036 128.724 49.3961C134.288 51.6629 152.167 54.8116 156.915 57.1856C162.849 60.153 186.96 77.9575 189.927 79.4413C192.301 80.6282 212.183 90.0745 221.827 94.6493" stroke="#2985FF"/>
</g>
<g filter="url(#filter16_d_37_5)">
<path d="M101.646 3.03013C120.193 17.8672 127.611 34.559 136.514 39.3811L141.336 41.6066C150.485 42.4721 158.027 38.1623 172.865 43.4613C188.444 49.0252 201.055 67.9425 210.328 72.7646L239.261 88.3436M123.16 2.28827C127.364 9.21226 137.107 23.8021 142.448 26.7695C147.79 29.7369 160.748 35.1772 166.559 37.5264C174.596 38.3919 180.519 37.9587 189.927 41.6066C208.103 48.6543 220.343 63.4914 224.424 65.346C227.688 66.8297 247.792 76.3502 257.436 80.925" stroke="#2985FF"/>
</g>
<g filter="url(#filter17_d_37_5)">
<path d="M52.3129 41.2357L64.5535 46.9951C68.2628 46.9951 73.8267 47.366 81.2453 50.3335C85.6016 52.076 104.243 66.0879 109.065 68.3135L143.932 85.0052C154.318 87.2308 166.188 91.311 177.316 98.3586" stroke="#2985FF"/>
</g>
<g filter="url(#filter18_d_37_5)">
<path d="M33.7665 74.9901L50.8292 67.2007C56.3931 64.2332 62.5307 52.7587 72.8615 49.0252C79.0197 46.7996 90.5185 51.0614 96.8243 48.4649C101.869 46.3877 105.603 45.4395 109.436 43.0903C117.225 40.8648 122.789 34.1661 128.724 32.5289C134.659 30.8917 136.885 33.6417 148.383 29.9324L165.817 22.3184" stroke="#2985FF"/>
</g>
<g filter="url(#filter19_d_37_5)">
<path d="M43.4106 79.8122L61.957 70.539C70.8593 66.8297 71.9721 55.4539 82.729 53.2284C92.4786 51.2112 99.7917 55.8249 106.097 53.2284L174.719 26.3986" stroke="#2985FF"/>
</g>
<path d="M67.15 90.94L2.23763 60.153C20.9077 53.1054 63.0698 37.0071 64.5535 36.4136C80.8744 29.8853 84.4444 7.55293 102.388 2.65917C120.332 -2.2346 127.611 5.25569 139.11 5.25569C140.223 5.25568 139.481 9.33589 146.158 13.0452L275.983 74.2483C255.829 81.9141 214.308 97.8316 209.215 99.4714C187.331 106.519 179.541 91.6819 139.11 102.068C137.503 101.079 130.855 93.6646 122.789 92.4238C103.501 89.4563 86.4383 98.7295 74.1977 93.9075C71.1109 92.6915 68.2628 91.311 67.15 90.94Z" stroke="#2985FF"/>
<defs>
<filter id="filter0_d_37_5" x="110.856" y="56.3361" width="132.179" height="43.8246" filterUnits="userSpaceOnUse" color-interpolation-filters="sRGB">
<feFlood flood-opacity="0" result="BackgroundImageFix"/>
<feColorMatrix in="SourceAlpha" type="matrix" values="0 0 0 0 0 0 0 0 0 0 0 0 0 0 0 0 0 0 127 0" result="hardAlpha"/>
<feOffset dy="4"/>
<feGaussianBlur stdDeviation="2"/>
<feComposite in2="hardAlpha" operator="out"/>
<feColorMatrix type="matrix" values="0 0 0 0 0 0 0 0 0 0 0 0 0 0 0 0 0 0 0.25 0"/>
<feBlend mode="normal" in2="BackgroundImageFix" result="effect1_dropShadow_37_5"/>
<feBlend mode="normal" in="SourceGraphic" in2="effect1_dropShadow_37_5" result="shape"/>
</filter>
<filter id="filter1_d_37_5" x="130.898" y="69.6959" width="139.976" height="38.0023" filterUnits="userSpaceOnUse" color-interpolation-filters="sRGB">
<feFlood flood-opacity="0" result="BackgroundImageFix"/>
<feColorMatrix in="SourceAlpha" type="matrix" values="0 0 0 0 0 0 0 0 0 0 0 0 0 0 0 0 0 0 127 0" result="hardAlpha"/>
<feOffset dy="4"/>
<feGaussianBlur stdDeviation="2"/>
<feComposite in2="hardAlpha" operator="out"/>
<feColorMatrix type="matrix" values="0 0 0 0 0 0 0 0 0 0 0 0 0 0 0 0 0 0 0.25 0"/>
<feBlend mode="normal" in2="BackgroundImageFix" result="effect1_dropShadow_37_5"/>
<feBlend mode="normal" in="SourceGraphic" in2="effect1_dropShadow_37_5" result="shape"/>
</filter>
<filter id="filter2_d_37_5" x="100.081" y="52.3184" width="134.555" height="48.5783" filterUnits="userSpaceOnUse" color-interpolation-filters="sRGB">
<feFlood flood-opacity="0" result="BackgroundImageFix"/>
<feColorMatrix in="SourceAlpha" type="matrix" values="0 0 0 0 0 0 0 0 0 0 0 0 0 0 0 0 0 0 127 0" result="hardAlpha"/>
<feOffset dy="4"/>
<feGaussianBlur stdDeviation="2"/>
<feComposite in2="hardAlpha" operator="out"/>
<feColorMatrix type="matrix" values="0 0 0 0 0 0 0 0 0 0 0 0 0 0 0 0 0 0 0.25 0"/>
<feBlend mode="normal" in2="BackgroundImageFix" result="effect1_dropShadow_37_5"/>
<feBlend mode="normal" in="SourceGraphic" in2="effect1_dropShadow_37_5" result="shape"/>
</filter>
<filter id="filter3_d_37_5" x="119.303" y="60.8538" width="132.401" height="40.015" filterUnits="userSpaceOnUse" color-interpolation-filters="sRGB">
<feFlood flood-opacity="0" result="BackgroundImageFix"/>
<feColorMatrix in="SourceAlpha" type="matrix" values="0 0 0 0 0 0 0 0 0 0 0 0 0 0 0 0 0 0 127 0" result="hardAlpha"/>
<feOffset dy="4"/>
<feGaussianBlur stdDeviation="2"/>
<feComposite in2="hardAlpha" operator="out"/>
<feColorMatrix type="matrix" values="0 0 0 0 0 0 0 0 0 0 0 0 0 0 0 0 0 0 0.25 0"/>
<feBlend mode="normal" in2="BackgroundImageFix" result="effect1_dropShadow_37_5"/>
<feBlend mode="normal" in="SourceGraphic" in2="effect1_dropShadow_37_5" result="shape"/>
</filter>
<filter id="filter4_d_37_5" x="88.5146" y="44.9616" width="136.46" height="57.761" filterUnits="userSpaceOnUse" color-interpolation-filters="sRGB">
<feFlood flood-opacity="0" result="BackgroundImageFix"/>
<feColorMatrix in="SourceAlpha" type="matrix" values="0 0 0 0 0 0 0 0 0 0 0 0 0 0 0 0 0 0 127 0" result="hardAlpha"/>
<feOffset dy="4"/>
<feGaussianBlur stdDeviation="2"/>
<feComposite in2="hardAlpha" operator="out"/>
<feColorMatrix type="matrix" values="0 0 0 0 0 0 0 0 0 0 0 0 0 0 0 0 0 0 0.25 0"/>
<feBlend mode="normal" in2="BackgroundImageFix" result="effect1_dropShadow_37_5"/>
<feBlend mode="normal" in="SourceGraphic" in2="effect1_dropShadow_37_5" result="shape"/>
</filter>
<filter id="filter5_d_37_5" x="78.5155" y="39.2344" width="137.076" height="64.6089" filterUnits="userSpaceOnUse" color-interpolation-filters="sRGB">
<feFlood flood-opacity="0" result="BackgroundImageFix"/>
<feColorMatrix in="SourceAlpha" type="matrix" values="0 0 0 0 0 0 0 0 0 0 0 0 0 0 0 0 0 0 127 0" result="hardAlpha"/>
<feOffset dy="4"/>
<feGaussianBlur stdDeviation="2"/>
<feComposite in2="hardAlpha" operator="out"/>
<feColorMatrix type="matrix" values="0 0 0 0 0 0 0 0 0 0 0 0 0 0 0 0 0 0 0.25 0"/>
<feBlend mode="normal" in2="BackgroundImageFix" result="effect1_dropShadow_37_5"/>
<feBlend mode="normal" in="SourceGraphic" in2="effect1_dropShadow_37_5" result="shape"/>
</filter>
<filter id="filter6_d_37_5" x="69.6193" y="37.7783" width="136.468" height="64.5841" filterUnits="userSpaceOnUse" color-interpolation-filters="sRGB">
<feFlood flood-opacity="0" result="BackgroundImageFix"/>
<feColorMatrix in="SourceAlpha" type="matrix" values="0 0 0 0 0 0 0 0 0 0 0 0 0 0 0 0 0 0 127 0" result="hardAlpha"/>
<feOffset dy="4"/>
<feGaussianBlur stdDeviation="2"/>
<feComposite in2="hardAlpha" operator="out"/>
<feColorMatrix type="matrix" values="0 0 0 0 0 0 0 0 0 0 0 0 0 0 0 0 0 0 0.25 0"/>
<feBlend mode="normal" in2="BackgroundImageFix" result="effect1_dropShadow_37_5"/>
<feBlend mode="normal" in="SourceGraphic" in2="effect1_dropShadow_37_5" result="shape"/>
</filter>
<filter id="filter7_d_37_5" x="59.949" y="34.8403" width="137.141" height="63.058" filterUnits="userSpaceOnUse" color-interpolation-filters="sRGB">
<feFlood flood-opacity="0" result="BackgroundImageFix"/>
<feColorMatrix in="SourceAlpha" type="matrix" values="0 0 0 0 0 0 0 0 0 0 0 0 0 0 0 0 0 0 127 0" result="hardAlpha"/>
<feOffset dy="4"/>
<feGaussianBlur stdDeviation="2"/>
<feComposite in2="hardAlpha" operator="out"/>
<feColorMatrix type="matrix" values="0 0 0 0 0 0 0 0 0 0 0 0 0 0 0 0 0 0 0.25 0"/>
<feBlend mode="normal" in2="BackgroundImageFix" result="effect1_dropShadow_37_5"/>
<feBlend mode="normal" in="SourceGraphic" in2="effect1_dropShadow_37_5" result="shape"/>
</filter>
<filter id="filter8_d_37_5" x="125.286" y="64.8786" width="136.328" height="38.3151" filterUnits="userSpaceOnUse" color-interpolation-filters="sRGB">
<feFlood flood-opacity="0" result="BackgroundImageFix"/>
<feColorMatrix in="SourceAlpha" type="matrix" values="0 0 0 0 0 0 0 0 0 0 0 0 0 0 0 0 0 0 127 0" result="hardAlpha"/>
<feOffset dy="4"/>
<feGaussianBlur stdDeviation="2"/>
<feComposite in2="hardAlpha" operator="out"/>
<feColorMatrix type="matrix" values="0 0 0 0 0 0 0 0 0 0 0 0 0 0 0 0 0 0 0.25 0"/>
<feBlend mode="normal" in2="BackgroundImageFix" result="effect1_dropShadow_37_5"/>
<feBlend mode="normal" in="SourceGraphic" in2="effect1_dropShadow_37_5" result="shape"/>
</filter>
<filter id="filter9_d_37_5" x="49.2124" y="30.0627" width="138.686" height="63.0237" filterUnits="userSpaceOnUse" color-interpolation-filters="sRGB">
<feFlood flood-opacity="0" result="BackgroundImageFix"/>
<feColorMatrix in="SourceAlpha" type="matrix" values="0 0 0 0 0 0 0 0 0 0 0 0 0 0 0 0 0 0 127 0" result="hardAlpha"/>
<feOffset dy="4"/>
<feGaussianBlur stdDeviation="2"/>
<feComposite in2="hardAlpha" operator="out"/>
<feColorMatrix type="matrix" values="0 0 0 0 0 0 0 0 0 0 0 0 0 0 0 0 0 0 0.25 0"/>
<feBlend mode="normal" in2="BackgroundImageFix" result="effect1_dropShadow_37_5"/>
<feBlend mode="normal" in="SourceGraphic" in2="effect1_dropShadow_37_5" result="shape"/>
</filter>
<filter id="filter10_d_37_5" x="19.1781" y="18.1541" width="142.686" height="60.2819" filterUnits="userSpaceOnUse" color-interpolation-filters="sRGB">
<feFlood flood-opacity="0" result="BackgroundImageFix"/>
<feColorMatrix in="SourceAlpha" type="matrix" values="0 0 0 0 0 0 0 0 0 0 0 0 0 0 0 0 0 0 127 0" result="hardAlpha"/>
<feOffset dy="4"/>
<feGaussianBlur stdDeviation="2"/>
<feComposite in2="hardAlpha" operator="out"/>
<feColorMatrix type="matrix" values="0 0 0 0 0 0 0 0 0 0 0 0 0 0 0 0 0 0 0.25 0"/>
<feBlend mode="normal" in2="BackgroundImageFix" result="effect1_dropShadow_37_5"/>
<feBlend mode="normal" in="SourceGraphic" in2="effect1_dropShadow_37_5" result="shape"/>
</filter>
<filter id="filter11_d_37_5" x="9.54496" y="9.9574" width="142.852" height="64.2214" filterUnits="userSpaceOnUse" color-interpolation-filters="sRGB">
<feFlood flood-opacity="0" result="BackgroundImageFix"/>
<feColorMatrix in="SourceAlpha" type="matrix" values="0 0 0 0 0 0 0 0 0 0 0 0 0 0 0 0 0 0 127 0" result="hardAlpha"/>
<feOffset dy="4"/>
<feGaussianBlur stdDeviation="2"/>
<feComposite in2="hardAlpha" operator="out"/>
<feColorMatrix type="matrix" values="0 0 0 0 0 0 0 0 0 0 0 0 0 0 0 0 0 0 0.25 0"/>
<feBlend mode="normal" in2="BackgroundImageFix" result="effect1_dropShadow_37_5"/>
<feBlend mode="normal" in="SourceGraphic" in2="effect1_dropShadow_37_5" result="shape"/>
</filter>
<filter id="filter12_d_37_5" x="14.3301" y="53.4025" width="140.835" height="54.5331" filterUnits="userSpaceOnUse" color-interpolation-filters="sRGB">
<feFlood flood-opacity="0" result="BackgroundImageFix"/>
<feColorMatrix in="SourceAlpha" type="matrix" values="0 0 0 0 0 0 0 0 0 0 0 0 0 0 0 0 0 0 127 0" result="hardAlpha"/>
<feOffset dy="4"/>
<feGaussianBlur stdDeviation="2"/>
<feComposite in2="hardAlpha" operator="out"/>
<feColorMatrix type="matrix" values="0 0 0 0 0 0 0 0 0 0 0 0 0 0 0 0 0 0 0.25 0"/>
<feBlend mode="normal" in2="BackgroundImageFix" result="effect1_dropShadow_37_5"/>
<feBlend mode="normal" in="SourceGraphic" in2="effect1_dropShadow_37_5" result="shape"/>
</filter>
<filter id="filter13_d_37_5" x="32.1456" y="47.0912" width="136.474" height="59.677" filterUnits="userSpaceOnUse" color-interpolation-filters="sRGB">
<feFlood flood-opacity="0" result="BackgroundImageFix"/>
<feColorMatrix in="SourceAlpha" type="matrix" values="0 0 0 0 0 0 0 0 0 0 0 0 0 0 0 0 0 0 127 0" result="hardAlpha"/>
<feOffset dy="4"/>
<feGaussianBlur stdDeviation="2"/>
<feComposite in2="hardAlpha" operator="out"/>
<feColorMatrix type="matrix" values="0 0 0 0 0 0 0 0 0 0 0 0 0 0 0 0 0 0 0.25 0"/>
<feBlend mode="normal" in2="BackgroundImageFix" result="effect1_dropShadow_37_5"/>
<feBlend mode="normal" in="SourceGraphic" in2="effect1_dropShadow_37_5" result="shape"/>
</filter>
<filter id="filter14_d_37_5" x="63.3066" y="34.8491" width="146.414" height="74.5575" filterUnits="userSpaceOnUse" color-interpolation-filters="sRGB">
<feFlood flood-opacity="0" result="BackgroundImageFix"/>
<feColorMatrix in="SourceAlpha" type="matrix" values="0 0 0 0 0 0 0 0 0 0 0 0 0 0 0 0 0 0 127 0" result="hardAlpha"/>
<feOffset dy="4"/>
<feGaussianBlur stdDeviation="2"/>
<feComposite in2="hardAlpha" operator="out"/>
<feColorMatrix type="matrix" values="0 0 0 0 0 0 0 0 0 0 0 0 0 0 0 0 0 0 0.25 0"/>
<feBlend mode="normal" in2="BackgroundImageFix" result="effect1_dropShadow_37_5"/>
<feBlend mode="normal" in="SourceGraphic" in2="effect1_dropShadow_37_5" result="shape"/>
</filter>
<filter id="filter15_d_37_5" x="80.2242" y="16.0359" width="145.817" height="87.0651" filterUnits="userSpaceOnUse" color-interpolation-filters="sRGB">
<feFlood flood-opacity="0" result="BackgroundImageFix"/>
<feColorMatrix in="SourceAlpha" type="matrix" values="0 0 0 0 0 0 0 0 0 0 0 0 0 0 0 0 0 0 127 0" result="hardAlpha"/>
<feOffset dy="4"/>
<feGaussianBlur stdDeviation="2"/>
<feComposite in2="hardAlpha" operator="out"/>
<feColorMatrix type="matrix" values="0 0 0 0 0 0 0 0 0 0 0 0 0 0 0 0 0 0 0.25 0"/>
<feBlend mode="normal" in2="BackgroundImageFix" result="effect1_dropShadow_37_5"/>
<feBlend mode="normal" in="SourceGraphic" in2="effect1_dropShadow_37_5" result="shape"/>
</filter>
<filter id="filter16_d_37_5" x="97.334" y="2.02881" width="164.316" height="94.755" filterUnits="userSpaceOnUse" color-interpolation-filters="sRGB">
<feFlood flood-opacity="0" result="BackgroundImageFix"/>
<feColorMatrix in="SourceAlpha" type="matrix" values="0 0 0 0 0 0 0 0 0 0 0 0 0 0 0 0 0 0 127 0" result="hardAlpha"/>
<feOffset dy="4"/>
<feGaussianBlur stdDeviation="2"/>
<feComposite in2="hardAlpha" operator="out"/>
<feColorMatrix type="matrix" values="0 0 0 0 0 0 0 0 0 0 0 0 0 0 0 0 0 0 0.25 0"/>
<feBlend mode="normal" in2="BackgroundImageFix" result="effect1_dropShadow_37_5"/>
<feBlend mode="normal" in="SourceGraphic" in2="effect1_dropShadow_37_5" result="shape"/>
</filter>
<filter id="filter17_d_37_5" x="48.1" y="40.7833" width="133.483" height="65.9977" filterUnits="userSpaceOnUse" color-interpolation-filters="sRGB">
<feFlood flood-opacity="0" result="BackgroundImageFix"/>
<feColorMatrix in="SourceAlpha" type="matrix" values="0 0 0 0 0 0 0 0 0 0 0 0 0 0 0 0 0 0 127 0" result="hardAlpha"/>
<feOffset dy="4"/>
<feGaussianBlur stdDeviation="2"/>
<feComposite in2="hardAlpha" operator="out"/>
<feColorMatrix type="matrix" values="0 0 0 0 0 0 0 0 0 0 0 0 0 0 0 0 0 0 0.25 0"/>
<feBlend mode="normal" in2="BackgroundImageFix" result="effect1_dropShadow_37_5"/>
<feBlend mode="normal" in="SourceGraphic" in2="effect1_dropShadow_37_5" result="shape"/>
</filter>
<filter id="filter18_d_37_5" x="29.5589" y="21.8602" width="140.458" height="61.5848" filterUnits="userSpaceOnUse" color-interpolation-filters="sRGB">
<feFlood flood-opacity="0" result="BackgroundImageFix"/>
<feColorMatrix in="SourceAlpha" type="matrix" values="0 0 0 0 0 0 0 0 0 0 0 0 0 0 0 0 0 0 127 0" result="hardAlpha"/>
<feOffset dy="4"/>
<feGaussianBlur stdDeviation="2"/>
<feComposite in2="hardAlpha" operator="out"/>
<feColorMatrix type="matrix" values="0 0 0 0 0 0 0 0 0 0 0 0 0 0 0 0 0 0 0.25 0"/>
<feBlend mode="normal" in2="BackgroundImageFix" result="effect1_dropShadow_37_5"/>
<feBlend mode="normal" in="SourceGraphic" in2="effect1_dropShadow_37_5" result="shape"/>
</filter>
<filter id="filter19_d_37_5" x="39.187" y="25.9329" width="139.714" height="62.3265" filterUnits="userSpaceOnUse" color-interpolation-filters="sRGB">
<feFlood flood-opacity="0" result="BackgroundImageFix"/>
<feColorMatrix in="SourceAlpha" type="matrix" values="0 0 0 0 0 0 0 0 0 0 0 0 0 0 0 0 0 0 127 0" result="hardAlpha"/>
<feOffset dy="4"/>
<feGaussianBlur stdDeviation="2"/>
<feComposite in2="hardAlpha" operator="out"/>
<feColorMatrix type="matrix" values="0 0 0 0 0 0 0 0 0 0 0 0 0 0 0 0 0 0 0.25 0"/>
<feBlend mode="normal" in2="BackgroundImageFix" result="effect1_dropShadow_37_5"/>
<feBlend mode="normal" in="SourceGraphic" in2="effect1_dropShadow_37_5" result="shape"/>
</filter>
</defs>
</svg>
